solid testerwpc28v1-IDC-TFTblack-IDC+IC2-lasty2
facet normal -7.3760613042815885e-09 -0.9999999999999969 7.861344644368451e-08
  outer loop
    vertex 1861.7522309371407 2252.559457202425 3.499999063926567
    vertex 1855.5593668662664 2252.5594573738854 5.099999063874928
    vertex 1855.5593668609642 2252.559457248104 3.4999990638749328
  endloop
endfacet
facet normal -7.3760613042815885e-09 -0.9999999999999969 7.861344644368451e-08
  outer loop
    vertex 1855.5593668662664 2252.5594573738854 5.099999063874928
    vertex 1861.7522309371407 2252.559457202425 3.499999063926567
    vertex 1861.7522309424435 2252.5594573282065 5.099999063926562
  endloop
endfacet
facet normal -7.230496792463871e-19 0.9999999999999969 -7.861344641924008e-08
  outer loop
    vertex 1825.7979864140937 2247.0605081282793 3.4999998866744546
    vertex 1851.2979864193958 2247.0605082540606 5.099999885778969
    vertex 1851.2979864140937 2247.0605081282793 3.499999885778974
  endloop
endfacet
facet normal -7.230496792463871e-19 0.9999999999999969 -7.861344641924008e-08
  outer loop
    vertex 1851.2979864193958 2247.0605082540606 5.099999885778969
    vertex 1825.7979864140937 2247.0605081282793 3.4999998866744546
    vertex 1825.7979864193962 2247.0605082540606 5.099999886674449
  endloop
endfacet
facet normal -1.4725725567405318e-19 -0.9999999999999969 7.861322082192147e-08
  outer loop
    vertex 1864.509366074797 2271.399162719909 5.099998797501506
    vertex 1860.5593660694947 2271.399162594129 3.4999987978256906
    vertex 1864.509366069495 2271.3991625941276 3.4999987975015108
  endloop
endfacet
facet normal -1.4725725567405318e-19 -0.9999999999999969 7.861322082192147e-08
  outer loop
    vertex 1860.5593660694947 2271.399162594129 3.4999987978256906
    vertex 1864.509366074797 2271.399162719909 5.099998797501506
    vertex 1860.5593660747973 2271.39916271991 5.099998797825685
  endloop
endfacet
facet normal -4.5399460935464384e-09 0.9999999999999984 -5.591348373248946e-08
  outer loop
    vertex 1777.0513334587608 2261.5697325918077 3.500000459212223
    vertex 1785.2513334640628 2261.569732717589 5.100000465152857
    vertex 1785.251333458485 2261.5697326644467 3.4999995664776367
  endloop
endfacet
facet normal -4.5399460935464384e-09 0.9999999999999984 -5.591348373248946e-08
  outer loop
    vertex 1785.2513334640628 2261.569732717589 5.100000465152857
    vertex 1777.0513334587608 2261.5697325918077 3.500000459212223
    vertex 1777.051333464063 2261.569732717589 5.100000459212217
  endloop
endfacet
facet normal 6.457752708695737e-08 -0.9999999999999949 7.861299501059117e-08
  outer loop
    vertex 1855.5593667667877 2245.8346382290356 5.099999022257739
    vertex 1782.0090886617536 2245.8346333535605 3.500010400224937
    vertex 1855.5593667614855 2245.8346381032547 3.4999990222577435
  endloop
endfacet
facet normal 6.457752708695737e-08 -0.9999999999999949 7.861299501059117e-08
  outer loop
    vertex 1782.0090886617536 2245.8346333535605 3.500010400224937
    vertex 1855.5593667667877 2245.8346382290356 5.099999022257739
    vertex 1782.0090886670564 2245.8346334793414 5.100010400224931
  endloop
endfacet
facet normal -0.9999999999927034 -3.820113893932752e-06 3.314324921293097e-09
  outer loop
    vertex 1775.8538263594648 2252.559133690971 5.0999974417332625
    vertex 1775.853803814296 2258.45944620682 3.499997158471071
    vertex 1775.853826354162 2252.5591335651898 3.4999974417332673
  endloop
endfacet
facet normal -0.9999999999927034 -3.820113893932752e-06 3.314324921293097e-09
  outer loop
    vertex 1775.853803814296 2258.45944620682 3.499997158471071
    vertex 1775.8538263594648 2252.559133690971 5.0999974417332625
    vertex 1775.8538038195982 2258.4594463326007 5.099997158471067
  endloop
endfacet
facet normal 1.845490350483898e-08 -0.9999999999999969 7.861333355942072e-08
  outer loop
    vertex 1864.5093660609941 2257.2594332476497 3.4999988984418664
    vertex 1861.75223092085 2257.2594333225484 5.099998898419851
    vertex 1861.752230915548 2257.259433196767 3.499998898419855
  endloop
endfacet
facet normal 1.845490350483898e-08 -0.9999999999999969 7.861333355942072e-08
  outer loop
    vertex 1861.75223092085 2257.2594333225484 5.099998898419851
    vertex 1864.5093660609941 2257.2594332476497 3.4999988984418664
    vertex 1864.509366066297 2257.259433373431 5.099998898441862
  endloop
endfacet
facet normal 0.9999999999999962 -8.880986774385685e-08 -3.296084303916615e-09
  outer loop
    vertex 1787.6439499657865 2268.774639304973 3.4999994414777578
    vertex 1787.643949527011 2263.774639380894 5.1000000582822524
    vertex 1787.643949521737 2263.774639304972 3.499999521681142
  endloop
endfacet
facet normal 0.9999999999999962 -8.880986774385685e-08 -3.296084303916615e-09
  outer loop
    vertex 1787.643949527011 2263.774639380894 5.1000000582822524
    vertex 1787.6439499657865 2268.774639304973 3.4999994414777578
    vertex 1787.6439499710602 2268.7746393808943 5.099999978078868
  endloop
endfacet
facet normal 1.0 -1.1877836838662734e-11 -3.3139118106972435e-09
  outer loop
    vertex 1860.5593660694947 2271.399162594129 3.4999987978256906
    vertex 1860.559366074752 2266.89916271991 5.099998652250839
    vertex 1860.55936606945 2266.899162594129 3.4999986522508437
  endloop
endfacet
facet normal 1.0 -1.1877836838662734e-11 -3.3139118106972435e-09
  outer loop
    vertex 1860.559366074752 2266.89916271991 5.099998652250839
    vertex 1860.5593660694947 2271.399162594129 3.4999987978256906
    vertex 1860.5593660747973 2271.39916271991 5.099998797825685
  endloop
endfacet
facet normal 1.0 2.1653735109326443e-16 -3.313799012971715e-09
  outer loop
    vertex 1777.0513334578527 2264.0697325918077 3.500000598321062
    vertex 1777.051333464063 2261.569732717589 5.100000459212217
    vertex 1777.0513334587608 2261.5697325918077 3.500000459212223
  endloop
endfacet
facet normal 1.0 2.1653735109326443e-16 -3.313799012971715e-09
  outer loop
    vertex 1777.051333464063 2261.569732717589 5.100000459212217
    vertex 1777.0513334578527 2264.0697325918077 3.500000598321062
    vertex 1777.0513334631548 2264.069732717589 5.100000598321056
  endloop
endfacet
facet normal -1.0 1.838830503770812e-08 3.314135963385717e-09
  outer loop
    vertex 1855.9093658902764 2263.7746351175856 5.099999838481351
    vertex 1855.9093660975425 2275.334634991805 3.499998782930882
    vertex 1855.9093658849738 2263.7746349918043 3.499999838481357
  endloop
endfacet
facet normal -1.0 1.838830503770812e-08 3.314135963385717e-09
  outer loop
    vertex 1855.9093660975425 2275.334634991805 3.499998782930882
    vertex 1855.9093658902764 2263.7746351175856 5.099999838481351
    vertex 1855.9093661028453 2275.334635117586 5.099998782930877
  endloop
endfacet
facet normal 1.0 -1.4792765339779313e-08 -3.313797850064762e-09
  outer loop
    vertex 1855.5593668609642 2252.559457248104 3.4999990638749328
    vertex 1855.5593667667877 2245.8346382290356 5.099999022257739
    vertex 1855.5593667614855 2245.8346381032547 3.4999990222577435
  endloop
endfacet
facet normal 1.0 -1.4792765339779313e-08 -3.313797850064762e-09
  outer loop
    vertex 1855.5593667667877 2245.8346382290356 5.099999022257739
    vertex 1855.5593668609642 2252.559457248104 3.4999990638749328
    vertex 1855.5593668662664 2252.5594573738854 5.099999063874928
  endloop
endfacet
facet normal -2.674369596072308e-09 -6.401322225260902e-08 -0.999999999999998
  outer loop
    vertex 1774.1092101093416 2268.77464994489 3.499999478496617
    vertex 1777.0513334578527 2264.0697325918077 3.500000598321062
    vertex 1774.1093050692275 2258.4594482004477 3.499998738413477
  endloop
endfacet
facet normal -2.674369596072308e-09 -6.401322225260902e-08 -0.999999999999998
  outer loop
    vertex 1777.0513334578527 2264.0697325918077 3.500000598321062
    vertex 1774.1092101093416 2268.77464994489 3.499999478496617
    vertex 1787.6439499657865 2268.774639304973 3.4999994414777578
  endloop
endfacet
facet normal -2.674369596072308e-09 -6.401322225260902e-08 -0.999999999999998
  outer loop
    vertex 1774.1093050692275 2258.4594482004477 3.499998738413477
    vertex 1777.0513334578527 2264.0697325918077 3.500000598321062
    vertex 1775.853803814296 2258.45944620682 3.499997158471071
  endloop
endfacet
facet normal -2.674369596072308e-09 -6.401322225260902e-08 -0.999999999999998
  outer loop
    vertex 1775.853803814296 2258.45944620682 3.499997158471071
    vertex 1777.0513334578527 2264.0697325918077 3.500000598321062
    vertex 1775.853826354162 2252.5591335651898 3.4999974417332673
  endloop
endfacet
facet normal -2.674369596072308e-09 -6.401322225260902e-08 -0.999999999999998
  outer loop
    vertex 1777.0513334578527 2264.0697325918077 3.500000598321062
    vertex 1787.6439499657865 2268.774639304973 3.4999994414777578
    vertex 1785.2513334575767 2264.069732664447 3.4999996237290136
  endloop
endfacet
facet normal -2.674369596072308e-09 -6.401322225260902e-08 -0.999999999999998
  outer loop
    vertex 1785.2513334575767 2264.069732664447 3.4999996237290136
    vertex 1787.6439499657865 2268.774639304973 3.4999994414777578
    vertex 1785.251333458485 2261.5697326644467 3.4999995664776367
  endloop
endfacet
facet normal -2.674369596072308e-09 -6.401322225260902e-08 -0.999999999999998
  outer loop
    vertex 1785.251333458485 2261.5697326644467 3.4999995664776367
    vertex 1787.6439499657865 2268.774639304973 3.4999994414777578
    vertex 1787.643949521737 2263.774639304972 3.499999521681142
  endloop
endfacet
facet normal -2.674369596072308e-09 -6.401322225260902e-08 -0.999999999999998
  outer loop
    vertex 1855.9093660975425 2275.334634991805 3.499998782930882
    vertex 1860.5593660694947 2271.399162594129 3.4999987978256906
    vertex 1860.55936606945 2266.899162594129 3.4999986522508437
  endloop
endfacet
facet normal -2.674369596072308e-09 -6.401322225260902e-08 -0.999999999999998
  outer loop
    vertex 1860.5593660694947 2271.399162594129 3.4999987978256906
    vertex 1855.9093660975425 2275.334634991805 3.499998782930882
    vertex 1864.509366069495 2275.334634991805 3.499998794692254
  endloop
endfacet
facet normal -2.674369596072308e-09 -6.401322225260902e-08 -0.999999999999998
  outer loop
    vertex 1860.5593660694947 2271.399162594129 3.4999987978256906
    vertex 1864.509366069495 2275.334634991805 3.499998794692254
    vertex 1864.509366069495 2271.3991625941276 3.4999987975015108
  endloop
endfacet
facet normal -2.674369596072308e-09 -6.401322225260902e-08 -0.999999999999998
  outer loop
    vertex 1864.5093660667294 2266.8991625943668 3.499998624058041
    vertex 1861.752230915548 2257.259433196767 3.499998898419855
    vertex 1860.55936606945 2266.899162594129 3.4999986522508437
  endloop
endfacet
facet normal -2.674369596072308e-09 -6.401322225260902e-08 -0.999999999999998
  outer loop
    vertex 1861.752230915548 2257.259433196767 3.499998898419855
    vertex 1864.5093660667294 2266.8991625943668 3.499998624058041
    vertex 1864.5093660609941 2257.2594332476497 3.4999988984418664
  endloop
endfacet
facet normal -2.674369596072308e-09 -6.401322225260902e-08 -0.999999999999998
  outer loop
    vertex 1855.9093658849738 2263.7746349918043 3.499999838481357
    vertex 1825.7979864140937 2251.8605081282794 3.4999998162568473
    vertex 1787.643949521737 2263.774639304972 3.499999521681142
  endloop
endfacet
facet normal -2.674369596072308e-09 -6.401322225260902e-08 -0.999999999999998
  outer loop
    vertex 1825.7979864140937 2251.8605081282794 3.4999998162568473
    vertex 1855.9093658849738 2263.7746349918043 3.499999838481357
    vertex 1851.2979864140937 2251.8605081282794 3.4999998153613676
  endloop
endfacet
facet normal -2.674369596072308e-09 -6.401322225260902e-08 -0.999999999999998
  outer loop
    vertex 1851.2979864140937 2251.8605081282794 3.4999998153613676
    vertex 1855.9093658849738 2263.7746349918043 3.499999838481357
    vertex 1851.2979864140937 2247.0605081282793 3.499999885778974
  endloop
endfacet
facet normal -2.674369596072308e-09 -6.401322225260902e-08 -0.999999999999998
  outer loop
    vertex 1851.2979864140937 2247.0605081282793 3.499999885778974
    vertex 1855.9093658849738 2263.7746349918043 3.499999838481357
    vertex 1855.5593668609642 2252.559457248104 3.4999990638749328
  endloop
endfacet
facet normal -2.674369596072308e-09 -6.401322225260902e-08 -0.999999999999998
  outer loop
    vertex 1851.2979864140937 2247.0605081282793 3.499999885778974
    vertex 1855.5593668609642 2252.559457248104 3.4999990638749328
    vertex 1855.5593667614855 2245.8346381032547 3.4999990222577435
  endloop
endfacet
facet normal -2.674369596072308e-09 -6.401322225260902e-08 -0.999999999999998
  outer loop
    vertex 1855.5593668609642 2252.559457248104 3.4999990638749328
    vertex 1855.9093658849738 2263.7746349918043 3.499999838481357
    vertex 1861.7522309371407 2252.559457202425 3.499999063926567
  endloop
endfacet
facet normal -2.674369596072308e-09 -6.401322225260902e-08 -0.999999999999998
  outer loop
    vertex 1861.7522309371407 2252.559457202425 3.499999063926567
    vertex 1855.9093658849738 2263.7746349918043 3.499999838481357
    vertex 1855.9093660975425 2275.334634991805 3.499998782930882
  endloop
endfacet
facet normal -2.674369596072308e-09 -6.401322225260902e-08 -0.999999999999998
  outer loop
    vertex 1861.7522309371407 2252.559457202425 3.499999063926567
    vertex 1855.9093660975425 2275.334634991805 3.499998782930882
    vertex 1860.55936606945 2266.899162594129 3.4999986522508437
  endloop
endfacet
facet normal -2.674369596072308e-09 -6.401322225260902e-08 -0.999999999999998
  outer loop
    vertex 1861.7522309371407 2252.559457202425 3.499999063926567
    vertex 1860.55936606945 2266.899162594129 3.4999986522508437
    vertex 1861.752230915548 2257.259433196767 3.499998898419855
  endloop
endfacet
facet normal -2.674369596072308e-09 -6.401322225260902e-08 -0.999999999999998
  outer loop
    vertex 1775.853826354162 2252.5591335651898 3.4999974417332673
    vertex 1777.0513334587608 2261.5697325918077 3.500000459212223
    vertex 1782.0090633450666 2252.5591569411367 3.4999937438766255
  endloop
endfacet
facet normal -2.674369596072308e-09 -6.401322225260902e-08 -0.999999999999998
  outer loop
    vertex 1777.0513334587608 2261.5697325918077 3.500000459212223
    vertex 1775.853826354162 2252.5591335651898 3.4999974417332673
    vertex 1777.0513334578527 2264.0697325918077 3.500000598321062
  endloop
endfacet
facet normal -2.674369596072308e-09 -6.401322225260902e-08 -0.999999999999998
  outer loop
    vertex 1782.0090633450666 2252.5591569411367 3.4999937438766255
    vertex 1777.0513334587608 2261.5697325918077 3.500000459212223
    vertex 1785.251333458485 2261.5697326644467 3.4999995664776367
  endloop
endfacet
facet normal -2.674369596072308e-09 -6.401322225260902e-08 -0.999999999999998
  outer loop
    vertex 1782.0090633450666 2252.5591569411367 3.4999937438766255
    vertex 1785.251333458485 2261.5697326644467 3.4999995664776367
    vertex 1782.0090886617536 2245.8346333535605 3.500010400224937
  endloop
endfacet
facet normal -2.674369596072308e-09 -6.401322225260902e-08 -0.999999999999998
  outer loop
    vertex 1782.0090886617536 2245.8346333535605 3.500010400224937
    vertex 1785.251333458485 2261.5697326644467 3.4999995664776367
    vertex 1825.7979864140937 2247.0605081282793 3.4999998866744546
  endloop
endfacet
facet normal -2.674369596072308e-09 -6.401322225260902e-08 -0.999999999999998
  outer loop
    vertex 1782.0090886617536 2245.8346333535605 3.500010400224937
    vertex 1825.7979864140937 2247.0605081282793 3.4999998866744546
    vertex 1855.5593667614855 2245.8346381032547 3.4999990222577435
  endloop
endfacet
facet normal -2.674369596072308e-09 -6.401322225260902e-08 -0.999999999999998
  outer loop
    vertex 1825.7979864140937 2247.0605081282793 3.4999998866744546
    vertex 1785.251333458485 2261.5697326644467 3.4999995664776367
    vertex 1787.643949521737 2263.774639304972 3.499999521681142
  endloop
endfacet
facet normal -2.674369596072308e-09 -6.401322225260902e-08 -0.999999999999998
  outer loop
    vertex 1825.7979864140937 2247.0605081282793 3.4999998866744546
    vertex 1787.643949521737 2263.774639304972 3.499999521681142
    vertex 1825.7979864140937 2251.8605081282794 3.4999998162568473
  endloop
endfacet
facet normal -2.674369596072308e-09 -6.401322225260902e-08 -0.999999999999998
  outer loop
    vertex 1855.5593667614855 2245.8346381032547 3.4999990222577435
    vertex 1825.7979864140937 2247.0605081282793 3.4999998866744546
    vertex 1851.2979864140937 2247.0605081282793 3.499999885778974
  endloop
endfacet
facet normal -1.1428085640065919e-06 -0.9999999999993439 7.86131118105066e-08
  outer loop
    vertex 1775.8538038195982 2258.4594463326007 5.099997158471067
    vertex 1774.1093050692275 2258.4594482004477 3.499998738413477
    vertex 1775.853803814296 2258.45944620682 3.499997158471071
  endloop
endfacet
facet normal -1.1428085640065919e-06 -0.9999999999993439 7.86131118105066e-08
  outer loop
    vertex 1774.1093050692275 2258.4594482004477 3.499998738413477
    vertex 1775.8538038195982 2258.4594463326007 5.099997158471067
    vertex 1774.1093050745303 2258.459448326229 5.09999873841347
  endloop
endfacet
facet normal 4.539969225387888e-09 -0.9999999999999984 5.591337093383006e-08
  outer loop
    vertex 1785.2513334631547 2264.069732717589 5.100000522404235
    vertex 1777.0513334578527 2264.0697325918077 3.500000598321062
    vertex 1785.2513334575767 2264.069732664447 3.4999996237290136
  endloop
endfacet
facet normal 4.539969225387888e-09 -0.9999999999999984 5.591337093383006e-08
  outer loop
    vertex 1777.0513334578527 2264.0697325918077 3.500000598321062
    vertex 1785.2513334631547 2264.069732717589 5.100000522404235
    vertex 1777.0513334631548 2264.069732717589 5.100000598321056
  endloop
endfacet
facet normal -6.215995481022237e-11 0.9999999999999969 -7.861322082171546e-08
  outer loop
    vertex 1860.55936606945 2266.899162594129 3.4999986522508437
    vertex 1864.5093660720318 2266.8991627201485 5.099998624058036
    vertex 1864.5093660667294 2266.8991625943668 3.499998624058041
  endloop
endfacet
facet normal -6.215995481022237e-11 0.9999999999999969 -7.861322082171546e-08
  outer loop
    vertex 1864.5093660720318 2266.8991627201485 5.099998624058036
    vertex 1860.55936606945 2266.899162594129 3.4999986522508437
    vertex 1860.559366074752 2266.89916271991 5.099998652250839
  endloop
endfacet
facet normal 1.0 -3.9404446128786836e-17 -3.3140246102902975e-09
  outer loop
    vertex 1825.7979864140937 2251.8605081282794 3.4999998162568473
    vertex 1825.7979864193962 2247.0605082540606 5.099999886674449
    vertex 1825.7979864140937 2247.0605081282793 3.4999998866744546
  endloop
endfacet
facet normal 1.0 -3.9404446128786836e-17 -3.3140246102902975e-09
  outer loop
    vertex 1825.7979864193962 2247.0605082540606 5.099999886674449
    vertex 1825.7979864140937 2251.8605081282794 3.4999998162568473
    vertex 1825.7979864193962 2251.8605082540603 5.099999816256842
  endloop
endfacet
facet normal 1.0 -5.882000699416936e-10 -3.3141373627091668e-09
  outer loop
    vertex 1864.5093660667294 2266.8991625943668 3.499998624058041
    vertex 1864.509366066297 2257.259433373431 5.099998898441862
    vertex 1864.5093660609941 2257.2594332476497 3.4999988984418664
  endloop
endfacet
facet normal 1.0 -5.882000699416936e-10 -3.3141373627091668e-09
  outer loop
    vertex 1864.509366066297 2257.259433373431 5.099998898441862
    vertex 1864.5093660667294 2266.8991625943668 3.499998624058041
    vertex 1864.5093660720318 2266.8991627201485 5.099998624058036
  endloop
endfacet
facet normal 1.0 4.59429834261523e-09 -3.314024971463407e-09
  outer loop
    vertex 1861.752230915548 2257.259433196767 3.499998898419855
    vertex 1861.7522309424435 2252.5594573282065 5.099999063926562
    vertex 1861.7522309371407 2252.559457202425 3.499999063926567
  endloop
endfacet
facet normal 1.0 4.59429834261523e-09 -3.314024971463407e-09
  outer loop
    vertex 1861.7522309424435 2252.5594573282065 5.099999063926562
    vertex 1861.752230915548 2257.259433196767 3.499998898419855
    vertex 1861.75223092085 2257.2594333225484 5.099998898419851
  endloop
endfacet
facet normal 1.0 -8.762333425511433e-18 -3.3137990129716954e-09
  outer loop
    vertex 1864.509366069495 2275.334634991805 3.499998794692254
    vertex 1864.509366074797 2271.399162719909 5.099998797501506
    vertex 1864.509366069495 2271.3991625941276 3.4999987975015108
  endloop
endfacet
facet normal 1.0 -8.762333425511433e-18 -3.3137990129716954e-09
  outer loop
    vertex 1864.509366074797 2271.399162719909 5.099998797501506
    vertex 1864.509366069495 2275.334634991805 3.499998794692254
    vertex 1864.509366074797 2275.334635117586 5.099998794692249
  endloop
endfacet
facet normal 7.230445734579965e-19 -0.9999999999999969 7.861299522460287e-08
  outer loop
    vertex 1851.2979864193958 2251.8605082540603 5.099999815361363
    vertex 1825.7979864140937 2251.8605081282794 3.4999998162568473
    vertex 1851.2979864140937 2251.8605081282794 3.4999998153613676
  endloop
endfacet
facet normal 7.230445734579965e-19 -0.9999999999999969 7.861299522460287e-08
  outer loop
    vertex 1825.7979864140937 2251.8605081282794 3.4999998162568473
    vertex 1851.2979864193958 2251.8605082540603 5.099999815361363
    vertex 1825.7979864193962 2251.8605082540603 5.099999816256842
  endloop
endfacet
facet normal 7.879609922216615e-07 0.9999999999996876 -6.303199303836976e-08
  outer loop
    vertex 1774.1092101093416 2268.77464994489 3.499999478496617
    vertex 1787.6439499710602 2268.7746393808943 5.099999978078868
    vertex 1787.6439499657865 2268.774639304973 3.4999994414777578
  endloop
endfacet
facet normal 7.879609922216615e-07 0.9999999999996876 -6.303199303836976e-08
  outer loop
    vertex 1787.6439499710602 2268.7746393808943 5.099999978078868
    vertex 1774.1092101093416 2268.77464994489 3.499999478496617
    vertex 1774.1092101146444 2268.774650070671 5.0999994784966125
  endloop
endfacet
facet normal -1.0 3.940176347886558e-17 3.3137990129716925e-09
  outer loop
    vertex 1851.2979864193958 2247.0605082540606 5.099999885778969
    vertex 1851.2979864140937 2251.8605081282794 3.4999998153613676
    vertex 1851.2979864140937 2247.0605081282793 3.499999885778974
  endloop
endfacet
facet normal -1.0 3.940176347886558e-17 3.3137990129716925e-09
  outer loop
    vertex 1851.2979864140937 2251.8605081282794 3.4999998153613676
    vertex 1851.2979864193958 2247.0605082540606 5.099999885778969
    vertex 1851.2979864193958 2251.8605082540603 5.099999815361363
  endloop
endfacet
facet normal 1.0079056804455243e-08 5.132115085102985e-08 0.9999999999999987
  outer loop
    vertex 1775.8538263594648 2252.559133690971 5.0999974417332625
    vertex 1777.051333464063 2261.569732717589 5.100000459212217
    vertex 1777.0513334631548 2264.069732717589 5.100000598321056
  endloop
endfacet
facet normal 1.0079056804455243e-08 5.132115085102985e-08 0.9999999999999987
  outer loop
    vertex 1777.051333464063 2261.569732717589 5.100000459212217
    vertex 1775.8538263594648 2252.559133690971 5.0999974417332625
    vertex 1782.009063350369 2252.559157066918 5.099993743876621
  endloop
endfacet
facet normal 1.0079056804455243e-08 5.132115085102985e-08 0.9999999999999987
  outer loop
    vertex 1777.051333464063 2261.569732717589 5.100000459212217
    vertex 1782.009063350369 2252.559157066918 5.099993743876621
    vertex 1785.2513334640628 2261.569732717589 5.100000465152857
  endloop
endfacet
facet normal 1.0079056804455243e-08 5.132115085102985e-08 0.9999999999999987
  outer loop
    vertex 1785.2513334640628 2261.569732717589 5.100000465152857
    vertex 1782.009063350369 2252.559157066918 5.099993743876621
    vertex 1782.0090886670564 2245.8346334793414 5.100010400224931
  endloop
endfacet
facet normal 1.0079056804455243e-08 5.132115085102985e-08 0.9999999999999987
  outer loop
    vertex 1785.2513334640628 2261.569732717589 5.100000465152857
    vertex 1782.0090886670564 2245.8346334793414 5.100010400224931
    vertex 1825.7979864193962 2247.0605082540606 5.099999886674449
  endloop
endfacet
facet normal 1.0079056804455243e-08 5.132115085102985e-08 0.9999999999999987
  outer loop
    vertex 1825.7979864193962 2247.0605082540606 5.099999886674449
    vertex 1782.0090886670564 2245.8346334793414 5.100010400224931
    vertex 1855.5593667667877 2245.8346382290356 5.099999022257739
  endloop
endfacet
facet normal 1.0079056804455243e-08 5.132115085102985e-08 0.9999999999999987
  outer loop
    vertex 1785.2513334640628 2261.569732717589 5.100000465152857
    vertex 1825.7979864193962 2247.0605082540606 5.099999886674449
    vertex 1787.643949527011 2263.774639380894 5.1000000582822524
  endloop
endfacet
facet normal 1.0079056804455243e-08 5.132115085102985e-08 0.9999999999999987
  outer loop
    vertex 1825.7979864193962 2247.0605082540606 5.099999886674449
    vertex 1855.5593667667877 2245.8346382290356 5.099999022257739
    vertex 1851.2979864193958 2247.0605082540606 5.099999885778969
  endloop
endfacet
facet normal 1.0079056804455243e-08 5.132115085102985e-08 0.9999999999999987
  outer loop
    vertex 1851.2979864193958 2247.0605082540606 5.099999885778969
    vertex 1855.5593667667877 2245.8346382290356 5.099999022257739
    vertex 1851.2979864193958 2251.8605082540603 5.099999815361363
  endloop
endfacet
facet normal 1.0079056804455243e-08 5.132115085102985e-08 0.9999999999999987
  outer loop
    vertex 1787.643949527011 2263.774639380894 5.1000000582822524
    vertex 1825.7979864193962 2251.8605082540603 5.099999816256842
    vertex 1855.9093658902764 2263.7746351175856 5.099999838481351
  endloop
endfacet
facet normal 1.0079056804455243e-08 5.132115085102985e-08 0.9999999999999987
  outer loop
    vertex 1825.7979864193962 2251.8605082540603 5.099999816256842
    vertex 1787.643949527011 2263.774639380894 5.1000000582822524
    vertex 1825.7979864193962 2247.0605082540606 5.099999886674449
  endloop
endfacet
facet normal 1.0079056804455243e-08 5.132115085102985e-08 0.9999999999999987
  outer loop
    vertex 1855.9093658902764 2263.7746351175856 5.099999838481351
    vertex 1825.7979864193962 2251.8605082540603 5.099999816256842
    vertex 1851.2979864193958 2251.8605082540603 5.099999815361363
  endloop
endfacet
facet normal 1.0079056804455243e-08 5.132115085102985e-08 0.9999999999999987
  outer loop
    vertex 1855.9093658902764 2263.7746351175856 5.099999838481351
    vertex 1851.2979864193958 2251.8605082540603 5.099999815361363
    vertex 1855.5593668662664 2252.5594573738854 5.099999063874928
  endloop
endfacet
facet normal 1.0079056804455243e-08 5.132115085102985e-08 0.9999999999999987
  outer loop
    vertex 1855.5593668662664 2252.5594573738854 5.099999063874928
    vertex 1851.2979864193958 2251.8605082540603 5.099999815361363
    vertex 1855.5593667667877 2245.8346382290356 5.099999022257739
  endloop
endfacet
facet normal 1.0079056804455243e-08 5.132115085102985e-08 0.9999999999999987
  outer loop
    vertex 1855.9093658902764 2263.7746351175856 5.099999838481351
    vertex 1855.5593668662664 2252.5594573738854 5.099999063874928
    vertex 1861.7522309424435 2252.5594573282065 5.099999063926562
  endloop
endfacet
facet normal 1.0079056804455243e-08 5.132115085102985e-08 0.9999999999999987
  outer loop
    vertex 1855.9093658902764 2263.7746351175856 5.099999838481351
    vertex 1861.7522309424435 2252.5594573282065 5.099999063926562
    vertex 1855.9093661028453 2275.334635117586 5.099998782930877
  endloop
endfacet
facet normal 1.0079056804455243e-08 5.132115085102985e-08 0.9999999999999987
  outer loop
    vertex 1855.9093661028453 2275.334635117586 5.099998782930877
    vertex 1861.7522309424435 2252.5594573282065 5.099999063926562
    vertex 1860.559366074752 2266.89916271991 5.099998652250839
  endloop
endfacet
facet normal 1.0079056804455243e-08 5.132115085102985e-08 0.9999999999999987
  outer loop
    vertex 1860.559366074752 2266.89916271991 5.099998652250839
    vertex 1861.7522309424435 2252.5594573282065 5.099999063926562
    vertex 1861.75223092085 2257.2594333225484 5.099998898419851
  endloop
endfacet
facet normal 1.0079056804455243e-08 5.132115085102985e-08 0.9999999999999987
  outer loop
    vertex 1861.75223092085 2257.2594333225484 5.099998898419851
    vertex 1864.5093660720318 2266.8991627201485 5.099998624058036
    vertex 1860.559366074752 2266.89916271991 5.099998652250839
  endloop
endfacet
facet normal 1.0079056804455243e-08 5.132115085102985e-08 0.9999999999999987
  outer loop
    vertex 1864.5093660720318 2266.8991627201485 5.099998624058036
    vertex 1861.75223092085 2257.2594333225484 5.099998898419851
    vertex 1864.509366066297 2257.259433373431 5.099998898441862
  endloop
endfacet
facet normal 1.0079056804455243e-08 5.132115085102985e-08 0.9999999999999987
  outer loop
    vertex 1855.9093661028453 2275.334635117586 5.099998782930877
    vertex 1860.5593660747973 2271.39916271991 5.099998797825685
    vertex 1864.509366074797 2275.334635117586 5.099998794692249
  endloop
endfacet
facet normal 1.0079056804455243e-08 5.132115085102985e-08 0.9999999999999987
  outer loop
    vertex 1860.5593660747973 2271.39916271991 5.099998797825685
    vertex 1855.9093661028453 2275.334635117586 5.099998782930877
    vertex 1860.559366074752 2266.89916271991 5.099998652250839
  endloop
endfacet
facet normal 1.0079056804455243e-08 5.132115085102985e-08 0.9999999999999987
  outer loop
    vertex 1864.509366074797 2275.334635117586 5.099998794692249
    vertex 1860.5593660747973 2271.39916271991 5.099998797825685
    vertex 1864.509366074797 2271.399162719909 5.099998797501506
  endloop
endfacet
facet normal 1.0079056804455243e-08 5.132115085102985e-08 0.9999999999999987
  outer loop
    vertex 1774.1092101146444 2268.774650070671 5.0999994784966125
    vertex 1777.0513334631548 2264.069732717589 5.100000598321056
    vertex 1787.6439499710602 2268.7746393808943 5.099999978078868
  endloop
endfacet
facet normal 1.0079056804455243e-08 5.132115085102985e-08 0.9999999999999987
  outer loop
    vertex 1777.0513334631548 2264.069732717589 5.100000598321056
    vertex 1774.1092101146444 2268.774650070671 5.0999994784966125
    vertex 1774.1093050745303 2258.459448326229 5.09999873841347
  endloop
endfacet
facet normal 1.0079056804455243e-08 5.132115085102985e-08 0.9999999999999987
  outer loop
    vertex 1777.0513334631548 2264.069732717589 5.100000598321056
    vertex 1774.1093050745303 2258.459448326229 5.09999873841347
    vertex 1775.8538038195982 2258.4594463326007 5.099997158471067
  endloop
endfacet
facet normal 1.0079056804455243e-08 5.132115085102985e-08 0.9999999999999987
  outer loop
    vertex 1777.0513334631548 2264.069732717589 5.100000598321056
    vertex 1775.8538038195982 2258.4594463326007 5.099997158471067
    vertex 1775.8538263594648 2252.559133690971 5.0999974417332625
  endloop
endfacet
facet normal 1.0079056804455243e-08 5.132115085102985e-08 0.9999999999999987
  outer loop
    vertex 1787.6439499710602 2268.7746393808943 5.099999978078868
    vertex 1777.0513334631548 2264.069732717589 5.100000598321056
    vertex 1785.2513334631547 2264.069732717589 5.100000522404235
  endloop
endfacet
facet normal 1.0079056804455243e-08 5.132115085102985e-08 0.9999999999999987
  outer loop
    vertex 1787.6439499710602 2268.7746393808943 5.099999978078868
    vertex 1785.2513334631547 2264.069732717589 5.100000522404235
    vertex 1785.2513334640628 2261.569732717589 5.100000465152857
  endloop
endfacet
facet normal 1.0079056804455243e-08 5.132115085102985e-08 0.9999999999999987
  outer loop
    vertex 1787.6439499710602 2268.7746393808943 5.099999978078868
    vertex 1785.2513334640628 2261.569732717589 5.100000465152857
    vertex 1787.643949527011 2263.774639380894 5.1000000582822524
  endloop
endfacet
facet normal 6.28171359116986e-08 0.999999999999996 -6.303232903764682e-08
  outer loop
    vertex 1787.643949527011 2263.774639380894 5.1000000582822524
    vertex 1855.9093658849738 2263.7746349918043 3.499999838481357
    vertex 1787.643949521737 2263.774639304972 3.499999521681142
  endloop
endfacet
facet normal 6.28171359116986e-08 0.999999999999996 -6.303232903764682e-08
  outer loop
    vertex 1855.9093658849738 2263.7746349918043 3.499999838481357
    vertex 1787.643949527011 2263.774639380894 5.1000000582822524
    vertex 1855.9093658902764 2263.7746351175856 5.099999838481351
  endloop
endfacet
facet normal -0.9999999999576266 -9.205819555478324e-06 3.314973906593045e-09
  outer loop
    vertex 1774.1093050745303 2258.459448326229 5.09999873841347
    vertex 1774.1092101093416 2268.77464994489 3.499999478496617
    vertex 1774.1093050692275 2258.4594482004477 3.499998738413477
  endloop
endfacet
facet normal -0.9999999999576266 -9.205819555478324e-06 3.314973906593045e-09
  outer loop
    vertex 1774.1092101093416 2268.77464994489 3.499999478496617
    vertex 1774.1093050745303 2258.459448326229 5.09999873841347
    vertex 1774.1092101146444 2268.774650070671 5.0999994784966125
  endloop
endfacet
facet normal 3.797733093734521e-06 -0.9999999999927855 7.861320823514583e-08
  outer loop
    vertex 1782.009063350369 2252.559157066918 5.099993743876621
    vertex 1775.853826354162 2252.5591335651898 3.4999974417332673
    vertex 1782.0090633450666 2252.5591569411367 3.4999937438766255
  endloop
endfacet
facet normal 3.797733093734521e-06 -0.9999999999927855 7.861320823514583e-08
  outer loop
    vertex 1775.853826354162 2252.5591335651898 3.4999974417332673
    vertex 1782.009063350369 2252.559157066918 5.099993743876621
    vertex 1775.8538263594648 2252.559133690971 5.0999974417332625
  endloop
endfacet
facet normal 1.0751124227014769e-16 0.9999999999999969 -7.861299522460288e-08
  outer loop
    vertex 1855.9093661028453 2275.334635117586 5.099998782930877
    vertex 1864.509366069495 2275.334634991805 3.499998794692254
    vertex 1855.9093660975425 2275.334634991805 3.499998782930882
  endloop
endfacet
facet normal 1.0751124227014769e-16 0.9999999999999969 -7.861299522460288e-08
  outer loop
    vertex 1864.509366069495 2275.334634991805 3.499998794692254
    vertex 1855.9093661028453 2275.334635117586 5.099998782930877
    vertex 1864.509366074797 2275.334635117586 5.099998794692249
  endloop
endfacet
facet normal -1.0 -1.0372680071997816e-16 3.486153406310215e-09
  outer loop
    vertex 1785.2513334640628 2261.569732717589 5.100000465152857
    vertex 1785.2513334575767 2264.069732664447 3.4999996237290136
    vertex 1785.251333458485 2261.5697326644467 3.4999995664776367
  endloop
endfacet
facet normal -1.0 -1.0372680071997816e-16 3.486153406310215e-09
  outer loop
    vertex 1785.2513334575767 2264.069732664447 3.4999996237290136
    vertex 1785.2513334640628 2261.569732717589 5.100000465152857
    vertex 1785.2513334631547 2264.069732717589 5.100000522404235
  endloop
endfacet
facet normal -0.999999999992913 -3.764829853293085e-06 3.314433373901924e-09
  outer loop
    vertex 1782.0090886670564 2245.8346334793414 5.100010400224931
    vertex 1782.0090633450666 2252.5591569411367 3.4999937438766255
    vertex 1782.0090886617536 2245.8346333535605 3.500010400224937
  endloop
endfacet
facet normal -0.999999999992913 -3.764829853293085e-06 3.314433373901924e-09
  outer loop
    vertex 1782.0090633450666 2252.5591569411367 3.4999937438766255
    vertex 1782.0090886670564 2245.8346334793414 5.100010400224931
    vertex 1782.009063350369 2252.559157066918 5.099993743876621
  endloop
endfacet
endsolid testerwpc28v1-IDC-TFTblack-IDC+IC2-lasty2
