solid testerwpc28v1-IDC-TFTblack-IDC+IC2-lasty2
facet normal -0.9186331129965232 -0.39511163448615017 0.0
  outer loop
    vertex 1663.71262291312 2327.419605271911 1.5999999999999999
    vertex 1663.8783370993756 2327.0343203916377 0.0
    vertex 1663.8783370993756 2327.0343203916377 1.5999999999999999
  endloop
endfacet
facet normal -0.9186331129965232 -0.39511163448615017 0.0
  outer loop
    vertex 1663.8783370993756 2327.0343203916377 0.0
    vertex 1663.71262291312 2327.419605271911 1.5999999999999999
    vertex 1663.71262291312 2327.419605271911 0.0
  endloop
endfacet
facet normal -0.8547041272925998 -0.5191154541997336 0.0
  outer loop
    vertex 1663.8783370993756 2327.0343203916377 1.5999999999999999
    vertex 1664.0960598581025 2326.675848034508 0.0
    vertex 1664.0960598581025 2326.675848034508 1.5999999999999999
  endloop
endfacet
facet normal -0.8547041272925998 -0.5191154541997336 0.0
  outer loop
    vertex 1664.0960598581025 2326.675848034508 0.0
    vertex 1663.8783370993756 2327.0343203916377 1.5999999999999999
    vertex 1663.8783370993756 2327.0343203916377 0.0
  endloop
endfacet
facet normal -0.6785067277676292 -0.7345941875444323 0.0
  outer loop
    vertex 1664.6696503844094 2326.066592236753 1.5999999999999999
    vertex 1664.3615534634587 2326.3511654571976 0.0
    vertex 1664.6696503844094 2326.066592236753 0.0
  endloop
endfacet
facet normal -0.6785067277676292 -0.7345941875444323 0.0
  outer loop
    vertex 1664.3615534634587 2326.3511654571976 0.0
    vertex 1664.6696503844094 2326.066592236753 1.5999999999999999
    vertex 1664.3615534634587 2326.3511654571976 1.5999999999999999
  endloop
endfacet
facet normal -0.774139297961645 -0.6330152820836565 0.0
  outer loop
    vertex 1664.0960598581025 2326.675848034508 1.5999999999999999
    vertex 1664.3615534634587 2326.3511654571976 0.0
    vertex 1664.3615534634587 2326.3511654571976 1.5999999999999999
  endloop
endfacet
facet normal -0.774139297961645 -0.6330152820836565 0.0
  outer loop
    vertex 1664.3615534634587 2326.3511654571976 0.0
    vertex 1664.0960598581025 2326.675848034508 1.5999999999999999
    vertex 1664.0960598581025 2326.675848034508 0.0
  endloop
endfacet
facet normal -0.4497409283855891 -0.893159054891607 0.0
  outer loop
    vertex 1665.3889546436108 2325.6390409513356 1.5999999999999999
    vertex 1665.0143538648442 2325.8276672672127 0.0
    vertex 1665.3889546436108 2325.6390409513356 0.0
  endloop
endfacet
facet normal -0.4497409283855891 -0.893159054891607 0.0
  outer loop
    vertex 1665.0143538648442 2325.8276672672127 0.0
    vertex 1665.3889546436108 2325.6390409513356 1.5999999999999999
    vertex 1665.0143538648442 2325.8276672672127 1.5999999999999999
  endloop
endfacet
facet normal 0.0 0.0 -1.0
  outer loop
    vertex 1663.5543689800982 2328.659617445041 0.0
    vertex 1663.6021427374747 2327.824203543389 0.0
    vertex 1663.5490469433885 2328.240240160941 0.0
  endloop
endfacet
facet normal 0.0 0.0 -1.0
  outer loop
    vertex 1663.6021427374747 2327.824203543389 0.0
    vertex 1663.5543689800982 2328.659617445041 0.0
    vertex 1663.6180052602128 2329.0741726938886 0.0
  endloop
endfacet
facet normal 0.0 0.0 -1.0
  outer loop
    vertex 1663.6021427374747 2327.824203543389 0.0
    vertex 1663.6180052602128 2329.0741726938886 0.0
    vertex 1663.71262291312 2327.419605271911 0.0
  endloop
endfacet
facet normal 0.0 0.0 -1.0
  outer loop
    vertex 1663.71262291312 2327.419605271911 0.0
    vertex 1663.6180052602128 2329.0741726938886 0.0
    vertex 1663.738717175925 2329.475837061114 0.0
  endloop
endfacet
facet normal 0.0 0.0 -1.0
  outer loop
    vertex 1663.71262291312 2327.419605271911 0.0
    vertex 1663.738717175925 2329.475837061114 0.0
    vertex 1663.8783370993756 2327.0343203916377 0.0
  endloop
endfacet
facet normal 0.0 0.0 -1.0
  outer loop
    vertex 1663.8783370993756 2327.0343203916377 0.0
    vertex 1663.738717175925 2329.475837061114 0.0
    vertex 1663.9141552071037 2329.8567926066967 0.0
  endloop
endfacet
facet normal 0.0 0.0 -1.0
  outer loop
    vertex 1663.8783370993756 2327.0343203916377 0.0
    vertex 1663.9141552071037 2329.8567926066967 0.0
    vertex 1664.0960598581025 2326.675848034508 0.0
  endloop
endfacet
facet normal 0.0 0.0 -1.0
  outer loop
    vertex 1664.0960598581025 2326.675848034508 0.0
    vertex 1663.9141552071037 2329.8567926066967 0.0
    vertex 1664.1409046520296 2330.209624464271 0.0
  endloop
endfacet
facet normal 0.0 0.0 -1.0
  outer loop
    vertex 1664.0960598581025 2326.675848034508 0.0
    vertex 1664.1409046520296 2330.209624464271 0.0
    vertex 1664.3615534634587 2326.3511654571976 0.0
  endloop
endfacet
facet normal 0.0 0.0 -1.0
  outer loop
    vertex 1664.3615534634587 2326.3511654571976 0.0
    vertex 1664.1409046520296 2330.209624464271 0.0
    vertex 1664.4145520906804 2330.527465163071 0.0
  endloop
endfacet
facet normal 0.0 0.0 -1.0
  outer loop
    vertex 1664.3615534634587 2326.3511654571976 0.0
    vertex 1664.4145520906804 2330.527465163071 0.0
    vertex 1664.6696503844094 2326.066592236753 0.0
  endloop
endfacet
facet normal 0.0 0.0 -1.0
  outer loop
    vertex 1664.6696503844094 2326.066592236753 0.0
    vertex 1664.4145520906804 2330.527465163071 0.0
    vertex 1664.7297712869324 2330.8041282954323 0.0
  endloop
endfacet
facet normal 0.0 0.0 -1.0
  outer loop
    vertex 1664.6696503844094 2326.066592236753 0.0
    vertex 1664.7297712869324 2330.8041282954323 0.0
    vertex 1665.0143538648442 2325.8276672672127 0.0
  endloop
endfacet
facet normal 0.0 0.0 -1.0
  outer loop
    vertex 1665.0143538648442 2325.8276672672127 0.0
    vertex 1664.7297712869324 2330.8041282954323 0.0
    vertex 1665.0804268576876 2331.0342289281825 0.0
  endloop
endfacet
facet normal 0.0 0.0 -1.0
  outer loop
    vertex 1665.0143538648442 2325.8276672672127 0.0
    vertex 1665.0804268576876 2331.0342289281825 0.0
    vertex 1665.3889546436108 2325.6390409513356 0.0
  endloop
endfacet
facet normal 0.0 0.0 -1.0
  outer loop
    vertex 1665.3889546436108 2325.6390409513356 0.0
    vertex 1665.0804268576876 2331.0342289281825 0.0
    vertex 1665.4596936911253 2331.213288414242 0.0
  endloop
endfacet
facet normal 0.0 0.0 -1.0
  outer loop
    vertex 1665.3889546436108 2325.6390409513356 0.0
    vertex 1665.4596936911253 2331.213288414242 0.0
    vertex 1665.7861615426523 2325.504384685801 0.0
  endloop
endfacet
facet normal 0.0 0.0 -1.0
  outer loop
    vertex 1665.7861615426523 2325.504384685801 0.0
    vertex 1665.4596936911253 2331.213288414242 0.0
    vertex 1665.8601897897427 2331.3378215643907 0.0
  endloop
endfacet
facet normal 0.0 0.0 -1.0
  outer loop
    vertex 1665.7861615426523 2325.504384685801 0.0
    vertex 1665.8601897897427 2331.3378215643907 0.0
    vertex 1666.1982433814946 2325.426319401649 0.0
  endloop
endfacet
facet normal 0.0 0.0 -1.0
  outer loop
    vertex 1666.1982433814946 2325.426319401649 0.0
    vertex 1665.8601897897427 2331.3378215643907 0.0
    vertex 1666.2741199525376 2331.405404482516 0.0
  endloop
endfacet
facet normal 0.0 0.0 -1.0
  outer loop
    vertex 1666.1982433814946 2325.426319401649 0.0
    vertex 1666.2741199525376 2331.405404482516 0.0
    vertex 1666.6171794558816 2325.4063645508368 0.0
  endloop
endfacet
facet normal 0.0 0.0 -1.0
  outer loop
    vertex 1666.6171794558816 2325.4063645508368 0.0
    vertex 1666.2741199525376 2331.405404482516 0.0
    vertex 1666.6934274997298 2331.414721743991 0.0
  endloop
endfacet
facet normal 0.0 0.0 -1.0
  outer loop
    vertex 1666.6171794558816 2325.4063645508368 0.0
    vertex 1666.6934274997298 2331.414721743991 0.0
    vertex 1667.034815651658 2325.444908531837 0.0
  endloop
endfacet
facet normal 0.0 0.0 -1.0
  outer loop
    vertex 1667.034815651658 2325.444908531837 0.0
    vertex 1666.6934274997298 2331.414721743991 0.0
    vertex 1667.1099510868685 2331.3655919989187 0.0
  endloop
endfacet
facet normal 0.0 0.0 -1.0
  outer loop
    vertex 1667.034815651658 2325.444908531837 0.0
    vertex 1667.1099510868685 2331.3655919989187 0.0
    vertex 1667.4430231553265 2325.5412011299036 0.0
  endloop
endfacet
facet normal 0.0 0.0 -1.0
  outer loop
    vertex 1667.4430231553265 2325.5412011299036 0.0
    vertex 1667.1099510868685 2331.3655919989187 0.0
    vertex 1667.5155835561186 2331.2589715019035 0.0
  endloop
endfacet
facet normal 0.0 0.0 -1.0
  outer loop
    vertex 1667.4430231553265 2325.5412011299036 0.0
    vertex 1667.5155835561186 2331.2589715019035 0.0
    vertex 1667.833856672158 2325.693368119146 0.0
  endloop
endfacet
facet normal 0.0 0.0 -1.0
  outer loop
    vertex 1667.833856672158 2325.693368119146 0.0
    vertex 1667.5155835561186 2331.2589715019035 0.0
    vertex 1667.902429732866 2331.09693549964 0.0
  endloop
endfacet
facet normal 0.0 0.0 -1.0
  outer loop
    vertex 1667.833856672158 2325.693368119146 0.0
    vertex 1667.902429732866 2331.09693549964 0.0
    vertex 1668.1997090723135 2325.898447742205 0.0
  endloop
endfacet
facet normal 0.0 0.0 -1.0
  outer loop
    vertex 1668.1997090723135 2325.898447742205 0.0
    vertex 1667.902429732866 2331.09693549964 0.0
    vertex 1668.262960096312 2330.8826378385997 0.0
  endloop
endfacet
facet normal 0.0 0.0 -1.0
  outer loop
    vertex 1668.1997090723135 2325.898447742205 0.0
    vertex 1668.262960096312 2330.8826378385997 0.0
    vertex 1668.533459454975 2326.1524483574935 0.0
  endloop
endfacet
facet normal 0.0 0.0 -1.0
  outer loop
    vertex 1668.533459454975 2326.1524483574935 0.0
    vertex 1668.262960096312 2330.8826378385997 0.0
    vertex 1668.5901573330286 2330.620249578995 0.0
  endloop
endfacet
facet normal 0.0 0.0 -1.0
  outer loop
    vertex 1668.533459454975 2326.1524483574935 0.0
    vertex 1668.5901573330286 2330.620249578995 0.0
    vertex 1668.8286117485795 2326.4504261319566 0.0
  endloop
endfacet
facet normal 0.0 0.0 -1.0
  outer loop
    vertex 1668.8286117485795 2326.4504261319566 0.0
    vertex 1668.5901573330286 2330.620249578995 0.0
    vertex 1668.877652920985 2330.3148778098353 0.0
  endloop
endfacet
facet normal 0.0 0.0 -1.0
  outer loop
    vertex 1668.8286117485795 2326.4504261319566 0.0
    vertex 1668.877652920985 2330.3148778098353 0.0
    vertex 1669.0794211494624 2326.786581267158 0.0
  endloop
endfacet
facet normal 0.0 0.0 -1.0
  outer loop
    vertex 1669.0794211494624 2326.786581267158 0.0
    vertex 1668.877652920985 2330.3148778098353 0.0
    vertex 1669.1198510855825 2329.9724662452536 0.0
  endloop
endfacet
facet normal 0.0 0.0 -1.0
  outer loop
    vertex 1669.0794211494624 2326.786581267158 0.0
    vertex 1669.1198510855825 2329.9724662452536 0.0
    vertex 1669.2810059379276 2327.1543708857625 0.0
  endloop
endfacet
facet normal 0.0 0.0 -1.0
  outer loop
    vertex 1669.2810059379276 2327.1543708857625 0.0
    vertex 1669.1198510855825 2329.9724662452536 0.0
    vertex 1669.3120377150437 2329.599679536867 0.0
  endloop
endfacet
facet normal 0.0 0.0 -1.0
  outer loop
    vertex 1669.2810059379276 2327.1543708857625 0.0
    vertex 1669.3120377150437 2329.599679536867 0.0
    vertex 1669.4294424953669 2327.546636381198 0.0
  endloop
endfacet
facet normal 0.0 0.0 -1.0
  outer loop
    vertex 1669.4294424953669 2327.546636381198 0.0
    vertex 1669.3120377150437 2329.599679536867 0.0
    vertex 1669.4504721152357 2329.2037735539147 0.0
  endloop
endfacet
facet normal 0.0 0.0 -1.0
  outer loop
    vertex 1669.4294424953669 2327.546636381198 0.0
    vertex 1669.4504721152357 2329.2037735539147 0.0
    vertex 1669.5218416730331 2327.9557427517916 0.0
  endloop
endfacet
facet normal 0.0 0.0 -1.0
  outer loop
    vertex 1669.5218416730331 2327.9557427517916 0.0
    vertex 1669.4504721152357 2329.2037735539147 0.0
    vertex 1669.5324598180248 2328.7924541560187 0.0
  endloop
endfacet
facet normal 0.0 0.0 -1.0
  outer loop
    vertex 1669.5218416730331 2327.9557427517916 0.0
    vertex 1669.5324598180248 2328.7924541560187 0.0
    vertex 1669.556405026036 2328.3737272073913 0.0
  endloop
endfacet
facet normal -0.5696677959062826 -0.821875052734464 0.0
  outer loop
    vertex 1665.0143538648442 2325.8276672672127 1.5999999999999999
    vertex 1664.6696503844094 2326.066592236753 0.0
    vertex 1665.0143538648442 2325.8276672672127 0.0
  endloop
endfacet
facet normal -0.5696677959062826 -0.821875052734464 0.0
  outer loop
    vertex 1664.6696503844094 2326.066592236753 0.0
    vertex 1665.0143538648442 2325.8276672672127 1.5999999999999999
    vertex 1664.6696503844094 2326.066592236753 1.5999999999999999
  endloop
endfacet
facet normal -0.9646819500861218 -0.2634174162390127 0.0
  outer loop
    vertex 1663.6021427374747 2327.824203543389 1.5999999999999999
    vertex 1663.71262291312 2327.419605271911 0.0
    vertex 1663.71262291312 2327.419605271911 1.5999999999999999
  endloop
endfacet
facet normal -0.9646819500861218 -0.2634174162390127 0.0
  outer loop
    vertex 1663.71262291312 2327.419605271911 0.0
    vertex 1663.6021427374747 2327.824203543389 1.5999999999999999
    vertex 1663.6021427374747 2327.824203543389 0.0
  endloop
endfacet
facet normal 0.5109490082496182 0.8596110230614379 0.0
  outer loop
    vertex 1667.902429732866 2331.09693549964 1.5999999999999999
    vertex 1668.262960096312 2330.8826378385997 0.0
    vertex 1667.902429732866 2331.09693549964 0.0
  endloop
endfacet
facet normal 0.5109490082496182 0.8596110230614379 0.0
  outer loop
    vertex 1668.262960096312 2330.8826378385997 0.0
    vertex 1667.902429732866 2331.09693549964 1.5999999999999999
    vertex 1668.262960096312 2330.8826378385997 1.5999999999999999
  endloop
endfacet
facet normal -0.3210603652664462 -0.9470587319986951 0.0
  outer loop
    vertex 1665.7861615426523 2325.504384685801 1.5999999999999999
    vertex 1665.3889546436108 2325.6390409513356 0.0
    vertex 1665.7861615426523 2325.504384685801 0.0
  endloop
endfacet
facet normal -0.3210603652664462 -0.9470587319986951 0.0
  outer loop
    vertex 1665.3889546436108 2325.6390409513356 0.0
    vertex 1665.7861615426523 2325.504384685801 1.5999999999999999
    vertex 1665.3889546436108 2325.6390409513356 1.5999999999999999
  endloop
endfacet
facet normal 0.7104671493058833 -0.7037303672268036 0.0
  outer loop
    vertex 1668.8286117485795 2326.4504261319566 0.0
    vertex 1668.533459454975 2326.1524483574935 1.5999999999999999
    vertex 1668.533459454975 2326.1524483574935 0.0
  endloop
endfacet
facet normal 0.7104671493058833 -0.7037303672268036 0.0
  outer loop
    vertex 1668.533459454975 2326.1524483574935 1.5999999999999999
    vertex 1668.8286117485795 2326.4504261319566 0.0
    vertex 1668.8286117485795 2326.4504261319566 1.5999999999999999
  endloop
endfacet
facet normal 0.9439569632606271 0.33006855577557753 0.0
  outer loop
    vertex 1669.3120377150437 2329.599679536867 0.0
    vertex 1669.4504721152357 2329.2037735539147 1.5999999999999999
    vertex 1669.4504721152357 2329.2037735539147 0.0
  endloop
endfacet
facet normal 0.9439569632606271 0.33006855577557753 0.0
  outer loop
    vertex 1669.4504721152357 2329.2037735539147 1.5999999999999999
    vertex 1669.3120377150437 2329.599679536867 0.0
    vertex 1669.3120377150437 2329.599679536867 1.5999999999999999
  endloop
endfacet
facet normal 0.2295900349313319 -0.9732874271561458 0.0
  outer loop
    vertex 1667.4430231553265 2325.5412011299036 1.5999999999999999
    vertex 1667.034815651658 2325.444908531837 0.0
    vertex 1667.4430231553265 2325.5412011299036 0.0
  endloop
endfacet
facet normal 0.2295900349313319 -0.9732874271561458 0.0
  outer loop
    vertex 1667.034815651658 2325.444908531837 0.0
    vertex 1667.4430231553265 2325.5412011299036 1.5999999999999999
    vertex 1667.034815651658 2325.444908531837 1.5999999999999999
  endloop
endfacet
facet normal 0.0 0.0 1.0
  outer loop
    vertex 1663.6021427374747 2327.824203543389 1.5999999999999999
    vertex 1663.5543689800982 2328.659617445041 1.5999999999999999
    vertex 1663.5490469433885 2328.240240160941 1.5999999999999999
  endloop
endfacet
facet normal 0.0 0.0 1.0
  outer loop
    vertex 1663.5543689800982 2328.659617445041 1.5999999999999999
    vertex 1663.6021427374747 2327.824203543389 1.5999999999999999
    vertex 1663.6180052602128 2329.0741726938886 1.5999999999999999
  endloop
endfacet
facet normal 0.0 0.0 1.0
  outer loop
    vertex 1663.6180052602128 2329.0741726938886 1.5999999999999999
    vertex 1663.6021427374747 2327.824203543389 1.5999999999999999
    vertex 1663.71262291312 2327.419605271911 1.5999999999999999
  endloop
endfacet
facet normal 0.0 0.0 1.0
  outer loop
    vertex 1663.6180052602128 2329.0741726938886 1.5999999999999999
    vertex 1663.71262291312 2327.419605271911 1.5999999999999999
    vertex 1663.738717175925 2329.475837061114 1.5999999999999999
  endloop
endfacet
facet normal 0.0 0.0 1.0
  outer loop
    vertex 1663.738717175925 2329.475837061114 1.5999999999999999
    vertex 1663.71262291312 2327.419605271911 1.5999999999999999
    vertex 1663.8783370993756 2327.0343203916377 1.5999999999999999
  endloop
endfacet
facet normal 0.0 0.0 1.0
  outer loop
    vertex 1663.738717175925 2329.475837061114 1.5999999999999999
    vertex 1663.8783370993756 2327.0343203916377 1.5999999999999999
    vertex 1663.8306427492937 2328.375181995647 1.5999999999999999
  endloop
endfacet
facet normal 0.0 0.0 1.0
  outer loop
    vertex 1663.8306427492937 2328.375181995647 1.5999999999999999
    vertex 1663.8783370993756 2327.0343203916377 1.5999999999999999
    vertex 1663.8698673829624 2327.950170713449 1.5999999999999999
  endloop
endfacet
facet normal 0.0 0.0 1.0
  outer loop
    vertex 1663.8698673829624 2327.950170713449 1.5999999999999999
    vertex 1663.8783370993756 2327.0343203916377 1.5999999999999999
    vertex 1663.9750955088678 2327.5365281099853 1.5999999999999999
  endloop
endfacet
facet normal 0.0 0.0 1.0
  outer loop
    vertex 1663.9750955088678 2327.5365281099853 1.5999999999999999
    vertex 1663.8783370993756 2327.0343203916377 1.5999999999999999
    vertex 1664.0960598581025 2326.675848034508 1.5999999999999999
  endloop
endfacet
facet normal 0.0 0.0 1.0
  outer loop
    vertex 1663.9750955088678 2327.5365281099853 1.5999999999999999
    vertex 1664.0960598581025 2326.675848034508 1.5999999999999999
    vertex 1664.1437360613177 2327.1444394389537 1.5999999999999999
  endloop
endfacet
facet normal 0.0 0.0 1.0
  outer loop
    vertex 1664.1437360613177 2327.1444394389537 1.5999999999999999
    vertex 1664.0960598581025 2326.675848034508 1.5999999999999999
    vertex 1664.3615534634587 2326.3511654571976 1.5999999999999999
  endloop
endfacet
facet normal 0.0 0.0 1.0
  outer loop
    vertex 1664.1437360613177 2327.1444394389537 1.5999999999999999
    vertex 1664.3615534634587 2326.3511654571976 1.5999999999999999
    vertex 1664.371636550225 2326.7835592247034 1.5999999999999999
  endloop
endfacet
facet normal 0.0 0.0 1.0
  outer loop
    vertex 1664.371636550225 2326.7835592247034 1.5999999999999999
    vertex 1664.3615534634587 2326.3511654571976 1.5999999999999999
    vertex 1664.6696503844094 2326.066592236753 1.5999999999999999
  endloop
endfacet
facet normal 0.0 0.0 1.0
  outer loop
    vertex 1664.371636550225 2326.7835592247034 1.5999999999999999
    vertex 1664.6696503844094 2326.066592236753 1.5999999999999999
    vertex 1664.653185309195 2326.462773535801 1.5999999999999999
  endloop
endfacet
facet normal 0.0 0.0 1.0
  outer loop
    vertex 1664.653185309195 2326.462773535801 1.5999999999999999
    vertex 1664.6696503844094 2326.066592236753 1.5999999999999999
    vertex 1664.9814496733748 2326.189981180535 1.5999999999999999
  endloop
endfacet
facet normal 0.0 0.0 1.0
  outer loop
    vertex 1664.9814496733748 2326.189981180535 1.5999999999999999
    vertex 1664.6696503844094 2326.066592236753 1.5999999999999999
    vertex 1665.0143538648442 2325.8276672672127 1.5999999999999999
  endloop
endfacet
facet normal 0.0 0.0 1.0
  outer loop
    vertex 1664.9814496733748 2326.189981180535 1.5999999999999999
    vertex 1665.0143538648442 2325.8276672672127 1.5999999999999999
    vertex 1665.3483466846706 2325.971899212037 1.5999999999999999
  endloop
endfacet
facet normal 0.0 0.0 1.0
  outer loop
    vertex 1665.3483466846706 2325.971899212037 1.5999999999999999
    vertex 1665.0143538648442 2325.8276672672127 1.5999999999999999
    vertex 1665.3889546436108 2325.6390409513356 1.5999999999999999
  endloop
endfacet
facet normal 0.0 0.0 1.0
  outer loop
    vertex 1665.3483466846706 2325.971899212037 1.5999999999999999
    vertex 1665.3889546436108 2325.6390409513356 1.5999999999999999
    vertex 1665.7448421210038 2325.813897532145 1.5999999999999999
  endloop
endfacet
facet normal 0.0 0.0 1.0
  outer loop
    vertex 1665.7448421210038 2325.813897532145 1.5999999999999999
    vertex 1665.3889546436108 2325.6390409513356 1.5999999999999999
    vertex 1665.7861615426523 2325.504384685801 1.5999999999999999
  endloop
endfacet
facet normal 0.0 0.0 1.0
  outer loop
    vertex 1665.7448421210038 2325.813897532145 1.5999999999999999
    vertex 1665.7861615426523 2325.504384685801 1.5999999999999999
    vertex 1666.1611729488388 2325.7198666665945 1.5999999999999999
  endloop
endfacet
facet normal 0.0 0.0 1.0
  outer loop
    vertex 1666.1611729488388 2325.7198666665945 1.5999999999999999
    vertex 1665.7861615426523 2325.504384685801 1.5999999999999999
    vertex 1666.1982433814946 2325.426319401649 1.5999999999999999
  endloop
endfacet
facet normal 0.0 0.0 1.0
  outer loop
    vertex 1666.1611729488388 2325.7198666665945 1.5999999999999999
    vertex 1666.1982433814946 2325.426319401649 1.5999999999999999
    vertex 1666.5870877214713 2325.692121967367 1.5999999999999999
  endloop
endfacet
facet normal 0.0 0.0 1.0
  outer loop
    vertex 1666.5870877214713 2325.692121967367 1.5999999999999999
    vertex 1666.1982433814946 2325.426319401649 1.5999999999999999
    vertex 1666.6171794558816 2325.4063645508368 1.5999999999999999
  endloop
endfacet
facet normal 0.0 0.0 1.0
  outer loop
    vertex 1666.5870877214713 2325.692121967367 1.5999999999999999
    vertex 1666.6171794558816 2325.4063645508368 1.5999999999999999
    vertex 1667.0120990036692 2325.7313466010355 1.5999999999999999
  endloop
endfacet
facet normal 0.0 0.0 1.0
  outer loop
    vertex 1667.0120990036692 2325.7313466010355 1.5999999999999999
    vertex 1666.6171794558816 2325.4063645508368 1.5999999999999999
    vertex 1667.034815651658 2325.444908531837 1.5999999999999999
  endloop
endfacet
facet normal 0.0 0.0 1.0
  outer loop
    vertex 1667.0120990036692 2325.7313466010355 1.5999999999999999
    vertex 1667.034815651658 2325.444908531837 1.5999999999999999
    vertex 1667.425741607133 2325.8365747269404 1.5999999999999999
  endloop
endfacet
facet normal 0.0 0.0 1.0
  outer loop
    vertex 1667.425741607133 2325.8365747269404 1.5999999999999999
    vertex 1667.034815651658 2325.444908531837 1.5999999999999999
    vertex 1667.4430231553265 2325.5412011299036 1.5999999999999999
  endloop
endfacet
facet normal 0.0 0.0 1.0
  outer loop
    vertex 1667.425741607133 2325.8365747269404 1.5999999999999999
    vertex 1667.4430231553265 2325.5412011299036 1.5999999999999999
    vertex 1667.8178302781644 2326.0052152793905 1.5999999999999999
  endloop
endfacet
facet normal 0.0 0.0 1.0
  outer loop
    vertex 1667.8178302781644 2326.0052152793905 1.5999999999999999
    vertex 1667.4430231553265 2325.5412011299036 1.5999999999999999
    vertex 1667.833856672158 2325.693368119146 1.5999999999999999
  endloop
endfacet
facet normal 0.0 0.0 1.0
  outer loop
    vertex 1667.8178302781644 2326.0052152793905 1.5999999999999999
    vertex 1667.833856672158 2325.693368119146 1.5999999999999999
    vertex 1668.1787104924147 2326.233115768298 1.5999999999999999
  endloop
endfacet
facet normal 0.0 0.0 1.0
  outer loop
    vertex 1668.1787104924147 2326.233115768298 1.5999999999999999
    vertex 1667.833856672158 2325.693368119146 1.5999999999999999
    vertex 1668.1997090723135 2325.898447742205 1.5999999999999999
  endloop
endfacet
facet normal 0.0 0.0 1.0
  outer loop
    vertex 1668.1787104924147 2326.233115768298 1.5999999999999999
    vertex 1668.1997090723135 2325.898447742205 1.5999999999999999
    vertex 1668.4994961813172 2326.514664527268 1.5999999999999999
  endloop
endfacet
facet normal 0.0 0.0 1.0
  outer loop
    vertex 1668.4994961813172 2326.514664527268 1.5999999999999999
    vertex 1668.1997090723135 2325.898447742205 1.5999999999999999
    vertex 1668.533459454975 2326.1524483574935 1.5999999999999999
  endloop
endfacet
facet normal 0.0 0.0 1.0
  outer loop
    vertex 1668.4994961813172 2326.514664527268 1.5999999999999999
    vertex 1668.533459454975 2326.1524483574935 1.5999999999999999
    vertex 1668.7722885365831 2326.8429288914476 1.5999999999999999
  endloop
endfacet
facet normal 0.0 0.0 1.0
  outer loop
    vertex 1668.7722885365831 2326.8429288914476 1.5999999999999999
    vertex 1668.533459454975 2326.1524483574935 1.5999999999999999
    vertex 1668.8286117485795 2326.4504261319566 1.5999999999999999
  endloop
endfacet
facet normal 0.0 0.0 1.0
  outer loop
    vertex 1668.7722885365831 2326.8429288914476 1.5999999999999999
    vertex 1668.8286117485795 2326.4504261319566 1.5999999999999999
    vertex 1668.990370505081 2327.2098259027434 1.5999999999999999
  endloop
endfacet
facet normal 0.0 0.0 1.0
  outer loop
    vertex 1668.990370505081 2327.2098259027434 1.5999999999999999
    vertex 1668.8286117485795 2326.4504261319566 1.5999999999999999
    vertex 1669.0794211494624 2326.786581267158 1.5999999999999999
  endloop
endfacet
facet normal 0.0 0.0 1.0
  outer loop
    vertex 1668.990370505081 2327.2098259027434 1.5999999999999999
    vertex 1669.0794211494624 2326.786581267158 1.5999999999999999
    vertex 1669.1483721849731 2327.6063213390767 1.5999999999999999
  endloop
endfacet
facet normal 0.0 0.0 1.0
  outer loop
    vertex 1669.1483721849731 2327.6063213390767 1.5999999999999999
    vertex 1669.0794211494624 2326.786581267158 1.5999999999999999
    vertex 1669.2810059379276 2327.1543708857625 1.5999999999999999
  endloop
endfacet
facet normal 0.0 0.0 1.0
  outer loop
    vertex 1669.1483721849731 2327.6063213390767 1.5999999999999999
    vertex 1669.2810059379276 2327.1543708857625 1.5999999999999999
    vertex 1669.2424030505235 2328.022652166912 1.5999999999999999
  endloop
endfacet
facet normal 0.0 0.0 1.0
  outer loop
    vertex 1669.2424030505235 2328.022652166912 1.5999999999999999
    vertex 1669.2810059379276 2327.1543708857625 1.5999999999999999
    vertex 1669.2701477497515 2328.448566939544 1.5999999999999999
  endloop
endfacet
facet normal 0.0 0.0 1.0
  outer loop
    vertex 1663.8306427492937 2328.375181995647 1.5999999999999999
    vertex 1663.9141552071037 2329.8567926066967 1.5999999999999999
    vertex 1663.738717175925 2329.475837061114 1.5999999999999999
  endloop
endfacet
facet normal 0.0 0.0 1.0
  outer loop
    vertex 1663.9141552071037 2329.8567926066967 1.5999999999999999
    vertex 1663.8306427492937 2328.375181995647 1.5999999999999999
    vertex 1663.8583874485219 2328.8010967682794 1.5999999999999999
  endloop
endfacet
facet normal 0.0 0.0 1.0
  outer loop
    vertex 1663.9141552071037 2329.8567926066967 1.5999999999999999
    vertex 1663.8583874485219 2328.8010967682794 1.5999999999999999
    vertex 1663.9524183140722 2329.2174275961142 1.5999999999999999
  endloop
endfacet
facet normal 0.0 0.0 1.0
  outer loop
    vertex 1663.9141552071037 2329.8567926066967 1.5999999999999999
    vertex 1663.9524183140722 2329.2174275961142 1.5999999999999999
    vertex 1664.1409046520296 2330.209624464271 1.5999999999999999
  endloop
endfacet
facet normal 0.0 0.0 1.0
  outer loop
    vertex 1664.1409046520296 2330.209624464271 1.5999999999999999
    vertex 1663.9524183140722 2329.2174275961142 1.5999999999999999
    vertex 1664.1104199939643 2329.6139230324475 1.5999999999999999
  endloop
endfacet
facet normal 0.0 0.0 1.0
  outer loop
    vertex 1664.1409046520296 2330.209624464271 1.5999999999999999
    vertex 1664.1104199939643 2329.6139230324475 1.5999999999999999
    vertex 1664.3285019624623 2329.9808200437437 1.5999999999999999
  endloop
endfacet
facet normal 0.0 0.0 1.0
  outer loop
    vertex 1664.1409046520296 2330.209624464271 1.5999999999999999
    vertex 1664.3285019624623 2329.9808200437437 1.5999999999999999
    vertex 1664.4145520906804 2330.527465163071 1.5999999999999999
  endloop
endfacet
facet normal 0.0 0.0 1.0
  outer loop
    vertex 1664.4145520906804 2330.527465163071 1.5999999999999999
    vertex 1664.3285019624623 2329.9808200437437 1.5999999999999999
    vertex 1664.6012943177282 2330.3090844079234 1.5999999999999999
  endloop
endfacet
facet normal 0.0 0.0 1.0
  outer loop
    vertex 1664.4145520906804 2330.527465163071 1.5999999999999999
    vertex 1664.6012943177282 2330.3090844079234 1.5999999999999999
    vertex 1664.7297712869324 2330.8041282954323 1.5999999999999999
  endloop
endfacet
facet normal 0.0 0.0 1.0
  outer loop
    vertex 1664.7297712869324 2330.8041282954323 1.5999999999999999
    vertex 1664.6012943177282 2330.3090844079234 1.5999999999999999
    vertex 1664.9220800066305 2330.590633166893 1.5999999999999999
  endloop
endfacet
facet normal 0.0 0.0 1.0
  outer loop
    vertex 1664.7297712869324 2330.8041282954323 1.5999999999999999
    vertex 1664.9220800066305 2330.590633166893 1.5999999999999999
    vertex 1665.0804268576876 2331.0342289281825 1.5999999999999999
  endloop
endfacet
facet normal 0.0 0.0 1.0
  outer loop
    vertex 1665.0804268576876 2331.0342289281825 1.5999999999999999
    vertex 1664.9220800066305 2330.590633166893 1.5999999999999999
    vertex 1665.282960220881 2330.8185336558004 1.5999999999999999
  endloop
endfacet
facet normal 0.0 0.0 1.0
  outer loop
    vertex 1665.0804268576876 2331.0342289281825 1.5999999999999999
    vertex 1665.282960220881 2330.8185336558004 1.5999999999999999
    vertex 1665.4596936911253 2331.213288414242 1.5999999999999999
  endloop
endfacet
facet normal 0.0 0.0 1.0
  outer loop
    vertex 1665.4596936911253 2331.213288414242 1.5999999999999999
    vertex 1665.282960220881 2330.8185336558004 1.5999999999999999
    vertex 1665.6750488919124 2330.9871742082505 1.5999999999999999
  endloop
endfacet
facet normal 0.0 0.0 1.0
  outer loop
    vertex 1665.4596936911253 2331.213288414242 1.5999999999999999
    vertex 1665.6750488919124 2330.9871742082505 1.5999999999999999
    vertex 1665.8601897897427 2331.3378215643907 1.5999999999999999
  endloop
endfacet
facet normal 0.0 0.0 1.0
  outer loop
    vertex 1665.8601897897427 2331.3378215643907 1.5999999999999999
    vertex 1665.6750488919124 2330.9871742082505 1.5999999999999999
    vertex 1666.088691495376 2331.092402334156 1.5999999999999999
  endloop
endfacet
facet normal 0.0 0.0 1.0
  outer loop
    vertex 1665.8601897897427 2331.3378215643907 1.5999999999999999
    vertex 1666.088691495376 2331.092402334156 1.5999999999999999
    vertex 1666.2741199525376 2331.405404482516 1.5999999999999999
  endloop
endfacet
facet normal 0.0 0.0 1.0
  outer loop
    vertex 1666.2741199525376 2331.405404482516 1.5999999999999999
    vertex 1666.088691495376 2331.092402334156 1.5999999999999999
    vertex 1666.513702777574 2331.1316269678246 1.5999999999999999
  endloop
endfacet
facet normal 0.0 0.0 1.0
  outer loop
    vertex 1666.2741199525376 2331.405404482516 1.5999999999999999
    vertex 1666.513702777574 2331.1316269678246 1.5999999999999999
    vertex 1666.6934274997298 2331.414721743991 1.5999999999999999
  endloop
endfacet
facet normal 0.0 0.0 1.0
  outer loop
    vertex 1666.6934274997298 2331.414721743991 1.5999999999999999
    vertex 1666.513702777574 2331.1316269678246 1.5999999999999999
    vertex 1666.9396175502065 2331.1038822685964 1.5999999999999999
  endloop
endfacet
facet normal 0.0 0.0 1.0
  outer loop
    vertex 1666.6934274997298 2331.414721743991 1.5999999999999999
    vertex 1666.9396175502065 2331.1038822685964 1.5999999999999999
    vertex 1667.1099510868685 2331.3655919989187 1.5999999999999999
  endloop
endfacet
facet normal 0.0 0.0 1.0
  outer loop
    vertex 1667.1099510868685 2331.3655919989187 1.5999999999999999
    vertex 1666.9396175502065 2331.1038822685964 1.5999999999999999
    vertex 1667.3559483780414 2331.009851403046 1.5999999999999999
  endloop
endfacet
facet normal 0.0 0.0 1.0
  outer loop
    vertex 1667.1099510868685 2331.3655919989187 1.5999999999999999
    vertex 1667.3559483780414 2331.009851403046 1.5999999999999999
    vertex 1667.5155835561186 2331.2589715019035 1.5999999999999999
  endloop
endfacet
facet normal 0.0 0.0 1.0
  outer loop
    vertex 1667.5155835561186 2331.2589715019035 1.5999999999999999
    vertex 1667.3559483780414 2331.009851403046 1.5999999999999999
    vertex 1667.7524438143746 2330.851849723154 1.5999999999999999
  endloop
endfacet
facet normal 0.0 0.0 1.0
  outer loop
    vertex 1667.5155835561186 2331.2589715019035 1.5999999999999999
    vertex 1667.7524438143746 2330.851849723154 1.5999999999999999
    vertex 1667.902429732866 2331.09693549964 1.5999999999999999
  endloop
endfacet
facet normal 0.0 0.0 1.0
  outer loop
    vertex 1667.902429732866 2331.09693549964 1.5999999999999999
    vertex 1667.7524438143746 2330.851849723154 1.5999999999999999
    vertex 1668.1193408256706 2330.6337677546558 1.5999999999999999
  endloop
endfacet
facet normal 0.0 0.0 1.0
  outer loop
    vertex 1667.902429732866 2331.09693549964 1.5999999999999999
    vertex 1668.1193408256706 2330.6337677546558 1.5999999999999999
    vertex 1668.262960096312 2330.8826378385997 1.5999999999999999
  endloop
endfacet
facet normal 0.0 0.0 1.0
  outer loop
    vertex 1668.262960096312 2330.8826378385997 1.5999999999999999
    vertex 1668.1193408256706 2330.6337677546558 1.5999999999999999
    vertex 1668.4476051898503 2330.36097539939 1.5999999999999999
  endloop
endfacet
facet normal 0.0 0.0 1.0
  outer loop
    vertex 1668.262960096312 2330.8826378385997 1.5999999999999999
    vertex 1668.4476051898503 2330.36097539939 1.5999999999999999
    vertex 1668.5901573330286 2330.620249578995 1.5999999999999999
  endloop
endfacet
facet normal 0.0 0.0 1.0
  outer loop
    vertex 1668.5901573330286 2330.620249578995 1.5999999999999999
    vertex 1668.4476051898503 2330.36097539939 1.5999999999999999
    vertex 1668.72915394882 2330.0401897104875 1.5999999999999999
  endloop
endfacet
facet normal 0.0 0.0 1.0
  outer loop
    vertex 1668.5901573330286 2330.620249578995 1.5999999999999999
    vertex 1668.72915394882 2330.0401897104875 1.5999999999999999
    vertex 1668.877652920985 2330.3148778098353 1.5999999999999999
  endloop
endfacet
facet normal 0.0 0.0 1.0
  outer loop
    vertex 1668.877652920985 2330.3148778098353 1.5999999999999999
    vertex 1668.72915394882 2330.0401897104875 1.5999999999999999
    vertex 1668.9570544377277 2329.6793094962372 1.5999999999999999
  endloop
endfacet
facet normal 0.0 0.0 1.0
  outer loop
    vertex 1668.877652920985 2330.3148778098353 1.5999999999999999
    vertex 1668.9570544377277 2329.6793094962372 1.5999999999999999
    vertex 1669.1198510855825 2329.9724662452536 1.5999999999999999
  endloop
endfacet
facet normal 0.0 0.0 1.0
  outer loop
    vertex 1669.1198510855825 2329.9724662452536 1.5999999999999999
    vertex 1668.9570544377277 2329.6793094962372 1.5999999999999999
    vertex 1669.1256949901776 2329.2872208252056 1.5999999999999999
  endloop
endfacet
facet normal 0.0 0.0 1.0
  outer loop
    vertex 1669.1198510855825 2329.9724662452536 1.5999999999999999
    vertex 1669.1256949901776 2329.2872208252056 1.5999999999999999
    vertex 1669.3120377150437 2329.599679536867 1.5999999999999999
  endloop
endfacet
facet normal 0.0 0.0 1.0
  outer loop
    vertex 1669.3120377150437 2329.599679536867 1.5999999999999999
    vertex 1669.1256949901776 2329.2872208252056 1.5999999999999999
    vertex 1669.2309231160827 2328.8735782217423 1.5999999999999999
  endloop
endfacet
facet normal 0.0 0.0 1.0
  outer loop
    vertex 1669.3120377150437 2329.599679536867 1.5999999999999999
    vertex 1669.2309231160827 2328.8735782217423 1.5999999999999999
    vertex 1669.2701477497515 2328.448566939544 1.5999999999999999
  endloop
endfacet
facet normal 0.0 0.0 1.0
  outer loop
    vertex 1669.3120377150437 2329.599679536867 1.5999999999999999
    vertex 1669.2701477497515 2328.448566939544 1.5999999999999999
    vertex 1669.2810059379276 2327.1543708857625 1.5999999999999999
  endloop
endfacet
facet normal 0.0 0.0 1.0
  outer loop
    vertex 1669.3120377150437 2329.599679536867 1.5999999999999999
    vertex 1669.2810059379276 2327.1543708857625 1.5999999999999999
    vertex 1669.4294424953669 2327.546636381198 1.5999999999999999
  endloop
endfacet
facet normal 0.0 0.0 1.0
  outer loop
    vertex 1669.3120377150437 2329.599679536867 1.5999999999999999
    vertex 1669.4294424953669 2327.546636381198 1.5999999999999999
    vertex 1669.4504721152357 2329.2037735539147 1.5999999999999999
  endloop
endfacet
facet normal 0.0 0.0 1.0
  outer loop
    vertex 1669.4504721152357 2329.2037735539147 1.5999999999999999
    vertex 1669.4294424953669 2327.546636381198 1.5999999999999999
    vertex 1669.5218416730331 2327.9557427517916 1.5999999999999999
  endloop
endfacet
facet normal 0.0 0.0 1.0
  outer loop
    vertex 1669.4504721152357 2329.2037735539147 1.5999999999999999
    vertex 1669.5218416730331 2327.9557427517916 1.5999999999999999
    vertex 1669.5324598180248 2328.7924541560187 1.5999999999999999
  endloop
endfacet
facet normal 0.0 0.0 1.0
  outer loop
    vertex 1669.5324598180248 2328.7924541560187 1.5999999999999999
    vertex 1669.5218416730331 2327.9557427517916 1.5999999999999999
    vertex 1669.556405026036 2328.3737272073913 1.5999999999999999
  endloop
endfacet
facet normal 0.9352769642485984 -0.35391665706197833 0.0
  outer loop
    vertex 1669.4294424953669 2327.546636381198 0.0
    vertex 1669.2810059379276 2327.1543708857625 1.5999999999999999
    vertex 1669.2810059379276 2327.1543708857625 0.0
  endloop
endfacet
facet normal 0.9352769642485984 -0.35391665706197833 0.0
  outer loop
    vertex 1669.2810059379276 2327.1543708857625 1.5999999999999999
    vertex 1669.4294424953669 2327.546636381198 0.0
    vertex 1669.4294424953669 2327.546636381198 1.5999999999999999
  endloop
endfacet
facet normal 0.9807071034200776 0.1954829335297621 0.0
  outer loop
    vertex 1669.4504721152357 2329.2037735539147 0.0
    vertex 1669.5324598180248 2328.7924541560187 1.5999999999999999
    vertex 1669.5324598180248 2328.7924541560187 0.0
  endloop
endfacet
facet normal 0.9807071034200776 0.1954829335297621 0.0
  outer loop
    vertex 1669.5324598180248 2328.7924541560187 1.5999999999999999
    vertex 1669.4504721152357 2329.2037735539147 0.0
    vertex 1669.4504721152357 2329.2037735539147 1.5999999999999999
  endloop
endfacet
facet normal 0.8888337745466207 0.4582297690299128 0.0
  outer loop
    vertex 1669.1198510855825 2329.9724662452536 0.0
    vertex 1669.3120377150437 2329.599679536867 1.5999999999999999
    vertex 1669.3120377150437 2329.599679536867 0.0
  endloop
endfacet
facet normal 0.8888337745466207 0.4582297690299128 0.0
  outer loop
    vertex 1669.3120377150437 2329.599679536867 1.5999999999999999
    vertex 1669.1198510855825 2329.9724662452536 0.0
    vertex 1669.1198510855825 2329.9724662452536 1.5999999999999999
  endloop
endfacet
facet normal 0.7280966196358665 0.6854745162840297 0.0
  outer loop
    vertex 1668.5901573330286 2330.620249578995 0.0
    vertex 1668.877652920985 2330.3148778098353 1.5999999999999999
    vertex 1668.877652920985 2330.3148778098353 0.0
  endloop
endfacet
facet normal 0.7280966196358665 0.6854745162840297 0.0
  outer loop
    vertex 1668.877652920985 2330.3148778098353 1.5999999999999999
    vertex 1668.5901573330286 2330.620249578995 0.0
    vertex 1668.5901573330286 2330.620249578995 1.5999999999999999
  endloop
endfacet
facet normal -0.04757826652303105 -0.998867513013945 0.0
  outer loop
    vertex 1666.6171794558816 2325.4063645508368 1.5999999999999999
    vertex 1666.1982433814946 2325.426319401649 0.0
    vertex 1666.6171794558816 2325.4063645508368 0.0
  endloop
endfacet
facet normal -0.04757826652303105 -0.998867513013945 0.0
  outer loop
    vertex 1666.1982433814946 2325.426319401649 0.0
    vertex 1666.6171794558816 2325.4063645508368 1.5999999999999999
    vertex 1666.1982433814946 2325.426319401649 1.5999999999999999
  endloop
endfacet
facet normal -0.022215107188357355 0.9997532140546534 0.0
  outer loop
    vertex 1666.2741199525376 2331.405404482516 1.5999999999999999
    vertex 1666.6934274997298 2331.414721743991 0.0
    vertex 1666.2741199525376 2331.405404482516 0.0
  endloop
endfacet
facet normal -0.022215107188357355 0.9997532140546534 0.0
  outer loop
    vertex 1666.6934274997298 2331.414721743991 0.0
    vertex 1666.2741199525376 2331.405404482516 1.5999999999999999
    vertex 1666.6934274997298 2331.414721743991 1.5999999999999999
  endloop
endfacet
facet normal -0.1861307273389525 -0.9825249881505674 0.0
  outer loop
    vertex 1666.1982433814946 2325.426319401649 1.5999999999999999
    vertex 1665.7861615426523 2325.504384685801 0.0
    vertex 1666.1982433814946 2325.426319401649 0.0
  endloop
endfacet
facet normal -0.1861307273389525 -0.9825249881505674 0.0
  outer loop
    vertex 1665.7861615426523 2325.504384685801 0.0
    vertex 1666.1982433814946 2325.426319401649 1.5999999999999999
    vertex 1665.7861615426523 2325.504384685801 1.5999999999999999
  endloop
endfacet
facet normal 0.48897047921936604 -0.8723003327134431 0.0
  outer loop
    vertex 1668.1997090723135 2325.898447742205 1.5999999999999999
    vertex 1667.833856672158 2325.693368119146 0.0
    vertex 1668.1997090723135 2325.898447742205 0.0
  endloop
endfacet
facet normal 0.48897047921936604 -0.8723003327134431 0.0
  outer loop
    vertex 1667.833856672158 2325.693368119146 0.0
    vertex 1668.1997090723135 2325.898447742205 1.5999999999999999
    vertex 1667.833856672158 2325.693368119146 1.5999999999999999
  endloop
endfacet
facet normal 0.9754305917699769 -0.22030696911190265 0.0
  outer loop
    vertex 1669.5218416730331 2327.9557427517916 0.0
    vertex 1669.4294424953669 2327.546636381198 1.5999999999999999
    vertex 1669.4294424953669 2327.546636381198 0.0
  endloop
endfacet
facet normal 0.9754305917699769 -0.22030696911190265 0.0
  outer loop
    vertex 1669.4294424953669 2327.546636381198 1.5999999999999999
    vertex 1669.5218416730331 2327.9557427517916 0.0
    vertex 1669.5218416730331 2327.9557427517916 1.5999999999999999
  endloop
endfacet
facet normal 0.625611219323713 0.7801349897654233 0.0
  outer loop
    vertex 1668.262960096312 2330.8826378385997 1.5999999999999999
    vertex 1668.5901573330286 2330.620249578995 0.0
    vertex 1668.262960096312 2330.8826378385997 0.0
  endloop
endfacet
facet normal 0.625611219323713 0.7801349897654233 0.0
  outer loop
    vertex 1668.5901573330286 2330.620249578995 0.0
    vertex 1668.262960096312 2330.8826378385997 1.5999999999999999
    vertex 1668.5901573330286 2330.620249578995 1.5999999999999999
  endloop
endfacet
facet normal 0.9983688953490591 0.05709245834170727 0.0
  outer loop
    vertex 1669.5324598180248 2328.7924541560187 0.0
    vertex 1669.556405026036 2328.3737272073913 1.5999999999999999
    vertex 1669.556405026036 2328.3737272073913 0.0
  endloop
endfacet
facet normal 0.9983688953490591 0.05709245834170727 0.0
  outer loop
    vertex 1669.556405026036 2328.3737272073913 1.5999999999999999
    vertex 1669.5324598180248 2328.7924541560187 0.0
    vertex 1669.5324598180248 2328.7924541560187 1.5999999999999999
  endloop
endfacet
facet normal 0.6056125943999532 -0.7957596279682438 0.0
  outer loop
    vertex 1668.533459454975 2326.1524483574935 1.5999999999999999
    vertex 1668.1997090723135 2325.898447742205 0.0
    vertex 1668.533459454975 2326.1524483574935 0.0
  endloop
endfacet
facet normal 0.6056125943999532 -0.7957596279682438 0.0
  outer loop
    vertex 1668.1997090723135 2325.898447742205 0.0
    vertex 1668.533459454975 2326.1524483574935 1.5999999999999999
    vertex 1668.1997090723135 2325.898447742205 1.5999999999999999
  endloop
endfacet
facet normal 0.09190025112967475 -0.9957682179314135 0.0
  outer loop
    vertex 1667.034815651658 2325.444908531837 1.5999999999999999
    vertex 1666.6171794558816 2325.4063645508368 0.0
    vertex 1667.034815651658 2325.444908531837 0.0
  endloop
endfacet
facet normal 0.09190025112967475 -0.9957682179314135 0.0
  outer loop
    vertex 1666.6171794558816 2325.4063645508368 0.0
    vertex 1667.034815651658 2325.444908531837 1.5999999999999999
    vertex 1666.6171794558816 2325.4063645508368 1.5999999999999999
  endloop
endfacet
facet normal 0.3863417559264015 0.9223557055863563 0.0
  outer loop
    vertex 1667.5155835561186 2331.2589715019035 1.5999999999999999
    vertex 1667.902429732866 2331.09693549964 0.0
    vertex 1667.5155835561186 2331.2589715019035 0.0
  endloop
endfacet
facet normal 0.3863417559264015 0.9223557055863563 0.0
  outer loop
    vertex 1667.902429732866 2331.09693549964 0.0
    vertex 1667.5155835561186 2331.2589715019035 1.5999999999999999
    vertex 1667.902429732866 2331.09693549964 1.5999999999999999
  endloop
endfacet
facet normal -0.5486279669627665 0.8360665965497616 0.0
  outer loop
    vertex 1664.7297712869324 2330.8041282954323 1.5999999999999999
    vertex 1665.0804268576876 2331.0342289281825 0.0
    vertex 1664.7297712869324 2330.8041282954323 0.0
  endloop
endfacet
facet normal -0.5486279669627665 0.8360665965497616 0.0
  outer loop
    vertex 1665.0804268576876 2331.0342289281825 0.0
    vertex 1664.7297712869324 2330.8041282954323 1.5999999999999999
    vertex 1665.0804268576876 2331.0342289281825 1.5999999999999999
  endloop
endfacet
facet normal -0.7578262359224032 0.6524564323751297 0.0
  outer loop
    vertex 1664.4145520906804 2330.527465163071 1.5999999999999999
    vertex 1664.1409046520296 2330.209624464271 0.0
    vertex 1664.1409046520296 2330.209624464271 1.5999999999999999
  endloop
endfacet
facet normal -0.7578262359224032 0.6524564323751297 0.0
  outer loop
    vertex 1664.1409046520296 2330.209624464271 0.0
    vertex 1664.4145520906804 2330.527465163071 1.5999999999999999
    vertex 1664.4145520906804 2330.527465163071 0.0
  endloop
endfacet
facet normal 0.8769192344805752 -0.48063775985455226 0.0
  outer loop
    vertex 1669.2810059379276 2327.1543708857625 0.0
    vertex 1669.0794211494624 2326.786581267158 1.5999999999999999
    vertex 1669.0794211494624 2326.786581267158 0.0
  endloop
endfacet
facet normal 0.8769192344805752 -0.48063775985455226 0.0
  outer loop
    vertex 1669.0794211494624 2326.786581267158 1.5999999999999999
    vertex 1669.2810059379276 2327.1543708857625 0.0
    vertex 1669.2810059379276 2327.1543708857625 1.5999999999999999
  endloop
endfacet
facet normal -0.1611376662866671 0.9869319391445831 0.0
  outer loop
    vertex 1665.8601897897427 2331.3378215643907 1.5999999999999999
    vertex 1666.2741199525376 2331.405404482516 0.0
    vertex 1665.8601897897427 2331.3378215643907 0.0
  endloop
endfacet
facet normal -0.1611376662866671 0.9869319391445831 0.0
  outer loop
    vertex 1666.2741199525376 2331.405404482516 0.0
    vertex 1665.8601897897427 2331.3378215643907 1.5999999999999999
    vertex 1666.2741199525376 2331.405404482516 1.5999999999999999
  endloop
endfacet
facet normal 0.8014932692938631 -0.5980037953697579 0.0
  outer loop
    vertex 1669.0794211494624 2326.786581267158 0.0
    vertex 1668.8286117485795 2326.4504261319566 1.5999999999999999
    vertex 1668.8286117485795 2326.4504261319566 0.0
  endloop
endfacet
facet normal 0.8014932692938631 -0.5980037953697579 0.0
  outer loop
    vertex 1668.8286117485795 2326.4504261319566 1.5999999999999999
    vertex 1669.0794211494624 2326.786581267158 0.0
    vertex 1669.0794211494624 2326.786581267158 1.5999999999999999
  endloop
endfacet
facet normal 0.8164104474447672 0.5774720610583989 0.0
  outer loop
    vertex 1668.877652920985 2330.3148778098353 0.0
    vertex 1669.1198510855825 2329.9724662452536 1.5999999999999999
    vertex 1669.1198510855825 2329.9724662452536 0.0
  endloop
endfacet
facet normal 0.8164104474447672 0.5774720610583989 0.0
  outer loop
    vertex 1669.1198510855825 2329.9724662452536 1.5999999999999999
    vertex 1668.877652920985 2330.3148778098353 0.0
    vertex 1668.877652920985 2330.3148778098353 1.5999999999999999
  endloop
endfacet
facet normal -0.29692386400203463 0.9549011566576413 0.0
  outer loop
    vertex 1665.4596936911253 2331.213288414242 1.5999999999999999
    vertex 1665.8601897897427 2331.3378215643907 0.0
    vertex 1665.4596936911253 2331.213288414242 0.0
  endloop
endfacet
facet normal -0.29692386400203463 0.9549011566576413 0.0
  outer loop
    vertex 1665.8601897897427 2331.3378215643907 0.0
    vertex 1665.4596936911253 2331.213288414242 1.5999999999999999
    vertex 1665.8601897897427 2331.3378215643907 1.5999999999999999
  endloop
endfacet
facet normal -0.42693077645217964 0.9042843093396785 0.0
  outer loop
    vertex 1665.0804268576876 2331.0342289281825 1.5999999999999999
    vertex 1665.4596936911253 2331.213288414242 0.0
    vertex 1665.0804268576876 2331.0342289281825 0.0
  endloop
endfacet
facet normal -0.42693077645217964 0.9042843093396785 0.0
  outer loop
    vertex 1665.4596936911253 2331.213288414242 0.0
    vertex 1665.0804268576876 2331.0342289281825 1.5999999999999999
    vertex 1665.4596936911253 2331.213288414242 1.5999999999999999
  endloop
endfacet
facet normal 0.9965985723578642 -0.08240925660547478 0.0
  outer loop
    vertex 1669.556405026036 2328.3737272073913 0.0
    vertex 1669.5218416730331 2327.9557427517916 1.5999999999999999
    vertex 1669.5218416730331 2327.9557427517916 0.0
  endloop
endfacet
facet normal 0.9965985723578642 -0.08240925660547478 0.0
  outer loop
    vertex 1669.5218416730331 2327.9557427517916 1.5999999999999999
    vertex 1669.556405026036 2328.3737272073913 0.0
    vertex 1669.556405026036 2328.3737272073913 1.5999999999999999
  endloop
endfacet
facet normal 0.362811109855731 -0.9318627037097541 0.0
  outer loop
    vertex 1667.833856672158 2325.693368119146 1.5999999999999999
    vertex 1667.4430231553265 2325.5412011299036 0.0
    vertex 1667.833856672158 2325.693368119146 0.0
  endloop
endfacet
facet normal 0.362811109855731 -0.9318627037097541 0.0
  outer loop
    vertex 1667.4430231553265 2325.5412011299036 0.0
    vertex 1667.833856672158 2325.693368119146 1.5999999999999999
    vertex 1667.4430231553265 2325.5412011299036 1.5999999999999999
  endloop
endfacet
facet normal -0.6596467381535901 0.7515757984683443 0.0
  outer loop
    vertex 1664.4145520906804 2330.527465163071 1.5999999999999999
    vertex 1664.7297712869324 2330.8041282954323 0.0
    vertex 1664.4145520906804 2330.527465163071 0.0
  endloop
endfacet
facet normal -0.6596467381535901 0.7515757984683443 0.0
  outer loop
    vertex 1664.7297712869324 2330.8041282954323 0.0
    vertex 1664.4145520906804 2330.527465163071 1.5999999999999999
    vertex 1664.7297712869324 2330.8041282954323 1.5999999999999999
  endloop
endfacet
facet normal -0.8412555080232139 0.540637743984458 0.0
  outer loop
    vertex 1664.1409046520296 2330.209624464271 1.5999999999999999
    vertex 1663.9141552071037 2329.8567926066967 0.0
    vertex 1663.9141552071037 2329.8567926066967 1.5999999999999999
  endloop
endfacet
facet normal -0.8412555080232139 0.540637743984458 0.0
  outer loop
    vertex 1663.9141552071037 2329.8567926066967 0.0
    vertex 1664.1409046520296 2330.209624464271 1.5999999999999999
    vertex 1664.1409046520296 2330.209624464271 0.0
  endloop
endfacet
facet normal 0.2542148007803504 0.9671477834665223 0.0
  outer loop
    vertex 1667.1099510868685 2331.3655919989187 1.5999999999999999
    vertex 1667.5155835561186 2331.2589715019035 0.0
    vertex 1667.1099510868685 2331.3655919989187 0.0
  endloop
endfacet
facet normal 0.2542148007803504 0.9671477834665223 0.0
  outer loop
    vertex 1667.5155835561186 2331.2589715019035 0.0
    vertex 1667.1099510868685 2331.3655919989187 1.5999999999999999
    vertex 1667.5155835561186 2331.2589715019035 1.5999999999999999
  endloop
endfacet
facet normal -0.9083106985747557 0.41829615687290234 0.0
  outer loop
    vertex 1663.9141552071037 2329.8567926066967 1.5999999999999999
    vertex 1663.738717175925 2329.475837061114 0.0
    vertex 1663.738717175925 2329.475837061114 1.5999999999999999
  endloop
endfacet
facet normal -0.9083106985747557 0.41829615687290234 0.0
  outer loop
    vertex 1663.738717175925 2329.475837061114 0.0
    vertex 1663.9141552071037 2329.8567926066967 1.5999999999999999
    vertex 1663.9141552071037 2329.8567926066967 0.0
  endloop
endfacet
facet normal -0.9576866545668083 0.2878129108720369 0.0
  outer loop
    vertex 1663.738717175925 2329.475837061114 1.5999999999999999
    vertex 1663.6180052602128 2329.0741726938886 0.0
    vertex 1663.6180052602128 2329.0741726938886 1.5999999999999999
  endloop
endfacet
facet normal -0.9576866545668083 0.2878129108720369 0.0
  outer loop
    vertex 1663.6180052602128 2329.0741726938886 0.0
    vertex 1663.738717175925 2329.475837061114 1.5999999999999999
    vertex 1663.738717175925 2329.475837061114 0.0
  endloop
endfacet
facet normal 0.11713984370314291 0.993115429855565 0.0
  outer loop
    vertex 1666.6934274997298 2331.414721743991 1.5999999999999999
    vertex 1667.1099510868685 2331.3655919989187 0.0
    vertex 1666.6934274997298 2331.414721743991 0.0
  endloop
endfacet
facet normal 0.11713984370314291 0.993115429855565 0.0
  outer loop
    vertex 1667.1099510868685 2331.3655919989187 0.0
    vertex 1666.6934274997298 2331.414721743991 1.5999999999999999
    vertex 1667.1099510868685 2331.3655919989187 1.5999999999999999
  endloop
endfacet
facet normal -0.9884223291798093 0.15172771394429155 0.0
  outer loop
    vertex 1663.6180052602128 2329.0741726938886 1.5999999999999999
    vertex 1663.5543689800982 2328.659617445041 0.0
    vertex 1663.5543689800982 2328.659617445041 1.5999999999999999
  endloop
endfacet
facet normal -0.9884223291798093 0.15172771394429155 0.0
  outer loop
    vertex 1663.5543689800982 2328.659617445041 0.0
    vertex 1663.6180052602128 2329.0741726938886 1.5999999999999999
    vertex 1663.6180052602128 2329.0741726938886 0.0
  endloop
endfacet
facet normal -0.9999194874691381 0.012689309652475323 0.0
  outer loop
    vertex 1663.5543689800982 2328.659617445041 1.5999999999999999
    vertex 1663.5490469433885 2328.240240160941 0.0
    vertex 1663.5490469433885 2328.240240160941 1.5999999999999999
  endloop
endfacet
facet normal -0.9999194874691381 0.012689309652475323 0.0
  outer loop
    vertex 1663.5490469433885 2328.240240160941 0.0
    vertex 1663.5543689800982 2328.659617445041 1.5999999999999999
    vertex 1663.5543689800982 2328.659617445041 0.0
  endloop
endfacet
facet normal -0.9919543503264486 -0.12659607761867317 0.0
  outer loop
    vertex 1663.5490469433885 2328.240240160941 1.5999999999999999
    vertex 1663.6021427374747 2327.824203543389 0.0
    vertex 1663.6021427374747 2327.824203543389 1.5999999999999999
  endloop
endfacet
facet normal -0.9919543503264486 -0.12659607761867317 0.0
  outer loop
    vertex 1663.6021427374747 2327.824203543389 0.0
    vertex 1663.5490469433885 2328.240240160941 1.5999999999999999
    vertex 1663.5490469433885 2328.240240160941 0.0
  endloop
endfacet
facet normal 0.9289578196932088 -0.3701855875514874 8.122387676752082e-18
  outer loop
    vertex 1669.1483721849731 2327.6063213390767 1.5999999999999999
    vertex 1668.990370505081 2327.2098259027434 2.5999999999999996
    vertex 1668.990370505081 2327.2098259027434 1.5999999999999999
  endloop
endfacet
facet normal 0.9289578196932088 -0.3701855875514874 8.122387676752082e-18
  outer loop
    vertex 1668.990370505081 2327.2098259027434 2.5999999999999996
    vertex 1669.1483721849731 2327.6063213390767 1.5999999999999999
    vertex 1669.1483721849731 2327.6063213390767 2.5999999999999996
  endloop
endfacet
facet normal 0.8596110230611058 -0.5109490082501766 8.935014787517341e-18
  outer loop
    vertex 1668.990370505081 2327.2098259027434 1.5999999999999999
    vertex 1668.7722885365831 2326.8429288914476 2.5999999999999996
    vertex 1668.7722885365831 2326.8429288914476 1.5999999999999999
  endloop
endfacet
facet normal 0.8596110230611058 -0.5109490082501766 8.935014787517341e-18
  outer loop
    vertex 1668.7722885365831 2326.8429288914476 2.5999999999999996
    vertex 1668.990370505081 2327.2098259027434 1.5999999999999999
    vertex 1668.990370505081 2327.2098259027434 2.5999999999999996
  endloop
endfacet
facet normal 0.7690977501568034 -0.6391311686217029 1.7901192057361767e-17
  outer loop
    vertex 1668.7722885365831 2326.8429288914476 1.5999999999999999
    vertex 1668.4994961813172 2326.514664527268 2.5999999999999996
    vertex 1668.4994961813172 2326.514664527268 1.5999999999999999
  endloop
endfacet
facet normal 0.7690977501568034 -0.6391311686217029 1.7901192057361767e-17
  outer loop
    vertex 1668.4994961813172 2326.514664527268 2.5999999999999996
    vertex 1668.7722885365831 2326.8429288914476 1.5999999999999999
    vertex 1668.7722885365831 2326.8429288914476 2.5999999999999996
  endloop
endfacet
facet normal 0.659646738153102 -0.7515757984687724 0.0
  outer loop
    vertex 1668.4994961813172 2326.514664527268 2.5999999999999996
    vertex 1668.1787104924147 2326.233115768298 1.5999999999999999
    vertex 1668.4994961813172 2326.514664527268 1.5999999999999999
  endloop
endfacet
facet normal 0.659646738153102 -0.7515757984687724 0.0
  outer loop
    vertex 1668.1787104924147 2326.233115768298 1.5999999999999999
    vertex 1668.4994961813172 2326.514664527268 2.5999999999999996
    vertex 1668.1787104924147 2326.233115768298 2.5999999999999996
  endloop
endfacet
facet normal 0.7515757984687724 0.659646738153102 0.0
  outer loop
    vertex 1668.4476051898503 2330.36097539939 1.5999999999999999
    vertex 1668.72915394882 2330.0401897104875 2.5999999999999996
    vertex 1668.72915394882 2330.0401897104875 1.5999999999999999
  endloop
endfacet
facet normal 0.7515757984687724 0.659646738153102 0.0
  outer loop
    vertex 1668.72915394882 2330.0401897104875 2.5999999999999996
    vertex 1668.4476051898503 2330.36097539939 1.5999999999999999
    vertex 1668.4476051898503 2330.36097539939 2.5999999999999996
  endloop
endfacet
facet normal 0.533953034215049 -0.8455141378194352 -9.337288417408318e-18
  outer loop
    vertex 1668.1787104924147 2326.233115768298 2.5999999999999996
    vertex 1667.8178302781644 2326.0052152793905 1.5999999999999999
    vertex 1668.1787104924147 2326.233115768298 1.5999999999999999
  endloop
endfacet
facet normal 0.533953034215049 -0.8455141378194352 -9.337288417408318e-18
  outer loop
    vertex 1667.8178302781644 2326.0052152793905 1.5999999999999999
    vertex 1668.1787104924147 2326.233115768298 2.5999999999999996
    vertex 1667.8178302781644 2326.0052152793905 2.5999999999999996
  endloop
endfacet
facet normal 0.3951116344859772 -0.9186331129965976 0.0
  outer loop
    vertex 1667.8178302781644 2326.0052152793905 2.5999999999999996
    vertex 1667.425741607133 2325.8365747269404 1.5999999999999999
    vertex 1667.8178302781644 2326.0052152793905 1.5999999999999999
  endloop
endfacet
facet normal 0.3951116344859772 -0.9186331129965976 0.0
  outer loop
    vertex 1667.425741607133 2325.8365747269404 1.5999999999999999
    vertex 1667.8178302781644 2326.0052152793905 2.5999999999999996
    vertex 1667.425741607133 2325.8365747269404 2.5999999999999996
  endloop
endfacet
facet normal 0.24654127501513254 -0.969132292163414 0.0
  outer loop
    vertex 1667.425741607133 2325.8365747269404 2.5999999999999996
    vertex 1667.0120990036692 2325.7313466010355 1.5999999999999999
    vertex 1667.425741607133 2325.8365747269404 1.5999999999999999
  endloop
endfacet
facet normal 0.24654127501513254 -0.969132292163414 0.0
  outer loop
    vertex 1667.0120990036692 2325.7313466010355 1.5999999999999999
    vertex 1667.425741607133 2325.8365747269404 2.5999999999999996
    vertex 1667.0120990036692 2325.7313466010355 2.5999999999999996
  endloop
endfacet
facet normal 0.0 0.0 1.0
  outer loop
    vertex 1663.8698673829624 2327.950170713449 2.5999999999999996
    vertex 1663.8583874485219 2328.8010967682794 2.5999999999999996
    vertex 1663.8306427492937 2328.375181995647 2.5999999999999996
  endloop
endfacet
facet normal 0.0 0.0 1.0
  outer loop
    vertex 1663.8583874485219 2328.8010967682794 2.5999999999999996
    vertex 1663.8698673829624 2327.950170713449 2.5999999999999996
    vertex 1663.9524183140722 2329.2174275961142 2.5999999999999996
  endloop
endfacet
facet normal 0.0 0.0 1.0
  outer loop
    vertex 1663.9524183140722 2329.2174275961142 2.5999999999999996
    vertex 1663.8698673829624 2327.950170713449 2.5999999999999996
    vertex 1663.9750955088678 2327.5365281099853 2.5999999999999996
  endloop
endfacet
facet normal 0.0 0.0 1.0
  outer loop
    vertex 1663.9524183140722 2329.2174275961142 2.5999999999999996
    vertex 1663.9750955088678 2327.5365281099853 2.5999999999999996
    vertex 1664.1104199939643 2329.6139230324475 2.5999999999999996
  endloop
endfacet
facet normal 0.0 0.0 1.0
  outer loop
    vertex 1664.1104199939643 2329.6139230324475 2.5999999999999996
    vertex 1663.9750955088678 2327.5365281099853 2.5999999999999996
    vertex 1664.1437360613177 2327.1444394389537 2.5999999999999996
  endloop
endfacet
facet normal 0.0 0.0 1.0
  outer loop
    vertex 1664.1104199939643 2329.6139230324475 2.5999999999999996
    vertex 1664.1437360613177 2327.1444394389537 2.5999999999999996
    vertex 1664.3285019624623 2329.9808200437437 2.5999999999999996
  endloop
endfacet
facet normal 0.0 0.0 1.0
  outer loop
    vertex 1664.3285019624623 2329.9808200437437 2.5999999999999996
    vertex 1664.1437360613177 2327.1444394389537 2.5999999999999996
    vertex 1664.371636550225 2326.7835592247034 2.5999999999999996
  endloop
endfacet
facet normal 0.0 0.0 1.0
  outer loop
    vertex 1664.3285019624623 2329.9808200437437 2.5999999999999996
    vertex 1664.371636550225 2326.7835592247034 2.5999999999999996
    vertex 1664.6012943177282 2330.3090844079234 2.5999999999999996
  endloop
endfacet
facet normal 0.0 0.0 1.0
  outer loop
    vertex 1664.6012943177282 2330.3090844079234 2.5999999999999996
    vertex 1664.371636550225 2326.7835592247034 2.5999999999999996
    vertex 1664.653185309195 2326.462773535801 2.5999999999999996
  endloop
endfacet
facet normal 0.0 0.0 1.0
  outer loop
    vertex 1664.6012943177282 2330.3090844079234 2.5999999999999996
    vertex 1664.653185309195 2326.462773535801 2.5999999999999996
    vertex 1664.9220800066305 2330.590633166893 2.5999999999999996
  endloop
endfacet
facet normal 0.0 0.0 1.0
  outer loop
    vertex 1664.9220800066305 2330.590633166893 2.5999999999999996
    vertex 1664.653185309195 2326.462773535801 2.5999999999999996
    vertex 1664.9814496733748 2326.189981180535 2.5999999999999996
  endloop
endfacet
facet normal 0.0 0.0 1.0
  outer loop
    vertex 1664.9220800066305 2330.590633166893 2.5999999999999996
    vertex 1664.9814496733748 2326.189981180535 2.5999999999999996
    vertex 1665.282960220881 2330.8185336558004 2.5999999999999996
  endloop
endfacet
facet normal 0.0 0.0 1.0
  outer loop
    vertex 1665.282960220881 2330.8185336558004 2.5999999999999996
    vertex 1664.9814496733748 2326.189981180535 2.5999999999999996
    vertex 1665.3483466846706 2325.971899212037 2.5999999999999996
  endloop
endfacet
facet normal 0.0 0.0 1.0
  outer loop
    vertex 1665.282960220881 2330.8185336558004 2.5999999999999996
    vertex 1665.3483466846706 2325.971899212037 2.5999999999999996
    vertex 1665.6750488919124 2330.9871742082505 2.5999999999999996
  endloop
endfacet
facet normal 0.0 0.0 1.0
  outer loop
    vertex 1665.6750488919124 2330.9871742082505 2.5999999999999996
    vertex 1665.3483466846706 2325.971899212037 2.5999999999999996
    vertex 1665.7448421210038 2325.813897532145 2.5999999999999996
  endloop
endfacet
facet normal 0.0 0.0 1.0
  outer loop
    vertex 1665.6750488919124 2330.9871742082505 2.5999999999999996
    vertex 1665.7448421210038 2325.813897532145 2.5999999999999996
    vertex 1666.088691495376 2331.092402334156 2.5999999999999996
  endloop
endfacet
facet normal 0.0 0.0 1.0
  outer loop
    vertex 1666.088691495376 2331.092402334156 2.5999999999999996
    vertex 1665.7448421210038 2325.813897532145 2.5999999999999996
    vertex 1666.1611729488388 2325.7198666665945 2.5999999999999996
  endloop
endfacet
facet normal 0.0 0.0 1.0
  outer loop
    vertex 1666.088691495376 2331.092402334156 2.5999999999999996
    vertex 1666.1611729488388 2325.7198666665945 2.5999999999999996
    vertex 1666.513702777574 2331.1316269678246 2.5999999999999996
  endloop
endfacet
facet normal 0.0 0.0 1.0
  outer loop
    vertex 1666.513702777574 2331.1316269678246 2.5999999999999996
    vertex 1666.1611729488388 2325.7198666665945 2.5999999999999996
    vertex 1666.5870877214713 2325.692121967367 2.5999999999999996
  endloop
endfacet
facet normal 0.0 0.0 1.0
  outer loop
    vertex 1666.513702777574 2331.1316269678246 2.5999999999999996
    vertex 1666.5870877214713 2325.692121967367 2.5999999999999996
    vertex 1666.9396175502065 2331.1038822685964 2.5999999999999996
  endloop
endfacet
facet normal 0.0 0.0 1.0
  outer loop
    vertex 1666.9396175502065 2331.1038822685964 2.5999999999999996
    vertex 1666.5870877214713 2325.692121967367 2.5999999999999996
    vertex 1667.0120990036692 2325.7313466010355 2.5999999999999996
  endloop
endfacet
facet normal 0.0 0.0 1.0
  outer loop
    vertex 1666.9396175502065 2331.1038822685964 2.5999999999999996
    vertex 1667.0120990036692 2325.7313466010355 2.5999999999999996
    vertex 1667.3559483780414 2331.009851403046 2.5999999999999996
  endloop
endfacet
facet normal 0.0 0.0 1.0
  outer loop
    vertex 1667.3559483780414 2331.009851403046 2.5999999999999996
    vertex 1667.0120990036692 2325.7313466010355 2.5999999999999996
    vertex 1667.425741607133 2325.8365747269404 2.5999999999999996
  endloop
endfacet
facet normal 0.0 0.0 1.0
  outer loop
    vertex 1667.3559483780414 2331.009851403046 2.5999999999999996
    vertex 1667.425741607133 2325.8365747269404 2.5999999999999996
    vertex 1667.7524438143746 2330.851849723154 2.5999999999999996
  endloop
endfacet
facet normal 0.0 0.0 1.0
  outer loop
    vertex 1667.7524438143746 2330.851849723154 2.5999999999999996
    vertex 1667.425741607133 2325.8365747269404 2.5999999999999996
    vertex 1667.8178302781644 2326.0052152793905 2.5999999999999996
  endloop
endfacet
facet normal 0.0 0.0 1.0
  outer loop
    vertex 1667.7524438143746 2330.851849723154 2.5999999999999996
    vertex 1667.8178302781644 2326.0052152793905 2.5999999999999996
    vertex 1668.1193408256706 2330.6337677546558 2.5999999999999996
  endloop
endfacet
facet normal 0.0 0.0 1.0
  outer loop
    vertex 1668.1193408256706 2330.6337677546558 2.5999999999999996
    vertex 1667.8178302781644 2326.0052152793905 2.5999999999999996
    vertex 1668.1787104924147 2326.233115768298 2.5999999999999996
  endloop
endfacet
facet normal 0.0 0.0 1.0
  outer loop
    vertex 1668.1193408256706 2330.6337677546558 2.5999999999999996
    vertex 1668.1787104924147 2326.233115768298 2.5999999999999996
    vertex 1668.4476051898503 2330.36097539939 2.5999999999999996
  endloop
endfacet
facet normal 0.0 0.0 1.0
  outer loop
    vertex 1668.4476051898503 2330.36097539939 2.5999999999999996
    vertex 1668.1787104924147 2326.233115768298 2.5999999999999996
    vertex 1668.4994961813172 2326.514664527268 2.5999999999999996
  endloop
endfacet
facet normal 0.0 0.0 1.0
  outer loop
    vertex 1668.4476051898503 2330.36097539939 2.5999999999999996
    vertex 1668.4994961813172 2326.514664527268 2.5999999999999996
    vertex 1668.72915394882 2330.0401897104875 2.5999999999999996
  endloop
endfacet
facet normal 0.0 0.0 1.0
  outer loop
    vertex 1668.72915394882 2330.0401897104875 2.5999999999999996
    vertex 1668.4994961813172 2326.514664527268 2.5999999999999996
    vertex 1668.7722885365831 2326.8429288914476 2.5999999999999996
  endloop
endfacet
facet normal 0.0 0.0 1.0
  outer loop
    vertex 1668.72915394882 2330.0401897104875 2.5999999999999996
    vertex 1668.7722885365831 2326.8429288914476 2.5999999999999996
    vertex 1668.9570544377277 2329.6793094962372 2.5999999999999996
  endloop
endfacet
facet normal 0.0 0.0 1.0
  outer loop
    vertex 1668.9570544377277 2329.6793094962372 2.5999999999999996
    vertex 1668.7722885365831 2326.8429288914476 2.5999999999999996
    vertex 1668.990370505081 2327.2098259027434 2.5999999999999996
  endloop
endfacet
facet normal 0.0 0.0 1.0
  outer loop
    vertex 1668.9570544377277 2329.6793094962372 2.5999999999999996
    vertex 1668.990370505081 2327.2098259027434 2.5999999999999996
    vertex 1669.1256949901776 2329.2872208252056 2.5999999999999996
  endloop
endfacet
facet normal 0.0 0.0 1.0
  outer loop
    vertex 1669.1256949901776 2329.2872208252056 2.5999999999999996
    vertex 1668.990370505081 2327.2098259027434 2.5999999999999996
    vertex 1669.1483721849731 2327.6063213390767 2.5999999999999996
  endloop
endfacet
facet normal 0.0 0.0 1.0
  outer loop
    vertex 1669.1256949901776 2329.2872208252056 2.5999999999999996
    vertex 1669.1483721849731 2327.6063213390767 2.5999999999999996
    vertex 1669.2309231160827 2328.8735782217423 2.5999999999999996
  endloop
endfacet
facet normal 0.0 0.0 1.0
  outer loop
    vertex 1669.2309231160827 2328.8735782217423 2.5999999999999996
    vertex 1669.1483721849731 2327.6063213390767 2.5999999999999996
    vertex 1669.2424030505235 2328.022652166912 2.5999999999999996
  endloop
endfacet
facet normal 0.0 0.0 1.0
  outer loop
    vertex 1669.2309231160827 2328.8735782217423 2.5999999999999996
    vertex 1669.2424030505235 2328.022652166912 2.5999999999999996
    vertex 1669.2701477497515 2328.448566939544 2.5999999999999996
  endloop
endfacet
facet normal -0.09190025113063184 0.995768217931325 1.6070685911550896e-18
  outer loop
    vertex 1666.088691495376 2331.092402334156 2.5999999999999996
    vertex 1666.513702777574 2331.1316269678246 1.5999999999999999
    vertex 1666.088691495376 2331.092402334156 1.5999999999999999
  endloop
endfacet
facet normal -0.09190025113063184 0.995768217931325 1.6070685911550896e-18
  outer loop
    vertex 1666.513702777574 2331.1316269678246 1.5999999999999999
    vertex 1666.088691495376 2331.092402334156 2.5999999999999996
    vertex 1666.513702777574 2331.1316269678246 2.5999999999999996
  endloop
endfacet
facet normal -0.24654127501513254 0.969132292163414 0.0
  outer loop
    vertex 1665.6750488919124 2330.9871742082505 2.5999999999999996
    vertex 1666.088691495376 2331.092402334156 1.5999999999999999
    vertex 1665.6750488919124 2330.9871742082505 1.5999999999999999
  endloop
endfacet
facet normal -0.24654127501513254 0.969132292163414 0.0
  outer loop
    vertex 1666.088691495376 2331.092402334156 1.5999999999999999
    vertex 1665.6750488919124 2330.9871742082505 2.5999999999999996
    vertex 1666.088691495376 2331.092402334156 2.5999999999999996
  endloop
endfacet
facet normal 0.22030696911253336 0.9754305917698345 3.852529303373849e-18
  outer loop
    vertex 1666.9396175502065 2331.1038822685964 2.5999999999999996
    vertex 1667.3559483780414 2331.009851403046 1.5999999999999999
    vertex 1666.9396175502065 2331.1038822685964 1.5999999999999999
  endloop
endfacet
facet normal 0.22030696911253336 0.9754305917698345 3.852529303373849e-18
  outer loop
    vertex 1667.3559483780414 2331.009851403046 1.5999999999999999
    vertex 1666.9396175502065 2331.1038822685964 2.5999999999999996
    vertex 1667.3559483780414 2331.009851403046 2.5999999999999996
  endloop
endfacet
facet normal 0.6391311686217029 0.7690977501568034 1.7901192057361767e-17
  outer loop
    vertex 1668.1193408256706 2330.6337677546558 2.5999999999999996
    vertex 1668.4476051898503 2330.36097539939 1.5999999999999999
    vertex 1668.1193408256706 2330.6337677546558 1.5999999999999999
  endloop
endfacet
facet normal 0.6391311686217029 0.7690977501568034 1.7901192057361767e-17
  outer loop
    vertex 1668.4476051898503 2330.36097539939 1.5999999999999999
    vertex 1668.1193408256706 2330.6337677546558 2.5999999999999996
    vertex 1668.4476051898503 2330.36097539939 2.5999999999999996
  endloop
endfacet
facet normal 0.8455141378194352 0.533953034215049 -9.337288417408318e-18
  outer loop
    vertex 1668.72915394882 2330.0401897104875 1.5999999999999999
    vertex 1668.9570544377277 2329.6793094962372 2.5999999999999996
    vertex 1668.9570544377277 2329.6793094962372 1.5999999999999999
  endloop
endfacet
facet normal 0.8455141378194352 0.533953034215049 -9.337288417408318e-18
  outer loop
    vertex 1668.9570544377277 2329.6793094962372 2.5999999999999996
    vertex 1668.72915394882 2330.0401897104875 1.5999999999999999
    vertex 1668.72915394882 2330.0401897104875 2.5999999999999996
  endloop
endfacet
facet normal 0.9186331129965976 0.3951116344859772 0.0
  outer loop
    vertex 1668.9570544377277 2329.6793094962372 1.5999999999999999
    vertex 1669.1256949901776 2329.2872208252056 2.5999999999999996
    vertex 1669.1256949901776 2329.2872208252056 1.5999999999999999
  endloop
endfacet
facet normal 0.9186331129965976 0.3951116344859772 0.0
  outer loop
    vertex 1669.1256949901776 2329.2872208252056 2.5999999999999996
    vertex 1668.9570544377277 2329.6793094962372 1.5999999999999999
    vertex 1668.9570544377277 2329.6793094962372 2.5999999999999996
  endloop
endfacet
facet normal 0.3701855875514874 0.9289578196932088 8.122387676752082e-18
  outer loop
    vertex 1667.3559483780414 2331.009851403046 2.5999999999999996
    vertex 1667.7524438143746 2330.851849723154 1.5999999999999999
    vertex 1667.3559483780414 2331.009851403046 1.5999999999999999
  endloop
endfacet
facet normal 0.3701855875514874 0.9289578196932088 8.122387676752082e-18
  outer loop
    vertex 1667.7524438143746 2330.851849723154 1.5999999999999999
    vertex 1667.3559483780414 2331.009851403046 2.5999999999999996
    vertex 1667.7524438143746 2330.851849723154 2.5999999999999996
  endloop
endfacet
facet normal 0.06500366193686166 0.9978850254086382 -1.0906320047848023e-18
  outer loop
    vertex 1666.513702777574 2331.1316269678246 2.5999999999999996
    vertex 1666.9396175502065 2331.1038822685964 1.5999999999999999
    vertex 1666.513702777574 2331.1316269678246 1.5999999999999999
  endloop
endfacet
facet normal 0.06500366193686166 0.9978850254086382 -1.0906320047848023e-18
  outer loop
    vertex 1666.9396175502065 2331.1038822685964 1.5999999999999999
    vertex 1666.513702777574 2331.1316269678246 2.5999999999999996
    vertex 1666.9396175502065 2331.1038822685964 2.5999999999999996
  endloop
endfacet
facet normal 0.5109490082501766 0.8596110230611058 8.935014787517341e-18
  outer loop
    vertex 1667.7524438143746 2330.851849723154 2.5999999999999996
    vertex 1668.1193408256706 2330.6337677546558 1.5999999999999999
    vertex 1667.7524438143746 2330.851849723154 1.5999999999999999
  endloop
endfacet
facet normal 0.5109490082501766 0.8596110230611058 8.935014787517341e-18
  outer loop
    vertex 1668.1193408256706 2330.6337677546558 1.5999999999999999
    vertex 1667.7524438143746 2330.851849723154 2.5999999999999996
    vertex 1668.1193408256706 2330.6337677546558 2.5999999999999996
  endloop
endfacet
facet normal 0.969132292163414 0.24654127501513254 0.0
  outer loop
    vertex 1669.1256949901776 2329.2872208252056 1.5999999999999999
    vertex 1669.2309231160827 2328.8735782217423 2.5999999999999996
    vertex 1669.2309231160827 2328.8735782217423 1.5999999999999999
  endloop
endfacet
facet normal 0.969132292163414 0.24654127501513254 0.0
  outer loop
    vertex 1669.2309231160827 2328.8735782217423 2.5999999999999996
    vertex 1669.1256949901776 2329.2872208252056 1.5999999999999999
    vertex 1669.1256949901776 2329.2872208252056 2.5999999999999996
  endloop
endfacet
facet normal 0.995768217931325 0.09190025113063184 1.6070685911550896e-18
  outer loop
    vertex 1669.2309231160827 2328.8735782217423 1.5999999999999999
    vertex 1669.2701477497515 2328.448566939544 2.5999999999999996
    vertex 1669.2701477497515 2328.448566939544 1.5999999999999999
  endloop
endfacet
facet normal 0.995768217931325 0.09190025113063184 1.6070685911550896e-18
  outer loop
    vertex 1669.2701477497515 2328.448566939544 2.5999999999999996
    vertex 1669.2309231160827 2328.8735782217423 1.5999999999999999
    vertex 1669.2309231160827 2328.8735782217423 2.5999999999999996
  endloop
endfacet
facet normal 0.9978850254086382 -0.06500366193686166 -1.0906320047848023e-18
  outer loop
    vertex 1669.2701477497515 2328.448566939544 1.5999999999999999
    vertex 1669.2424030505235 2328.022652166912 2.5999999999999996
    vertex 1669.2424030505235 2328.022652166912 1.5999999999999999
  endloop
endfacet
facet normal 0.9978850254086382 -0.06500366193686166 -1.0906320047848023e-18
  outer loop
    vertex 1669.2424030505235 2328.022652166912 2.5999999999999996
    vertex 1669.2701477497515 2328.448566939544 1.5999999999999999
    vertex 1669.2701477497515 2328.448566939544 2.5999999999999996
  endloop
endfacet
facet normal 0.9754305917698345 -0.22030696911253336 -3.852529303373849e-18
  outer loop
    vertex 1669.2424030505235 2328.022652166912 1.5999999999999999
    vertex 1669.1483721849731 2327.6063213390767 2.5999999999999996
    vertex 1669.1483721849731 2327.6063213390767 1.5999999999999999
  endloop
endfacet
facet normal 0.9754305917698345 -0.22030696911253336 -3.852529303373849e-18
  outer loop
    vertex 1669.1483721849731 2327.6063213390767 2.5999999999999996
    vertex 1669.2424030505235 2328.022652166912 1.5999999999999999
    vertex 1669.2424030505235 2328.022652166912 2.5999999999999996
  endloop
endfacet
facet normal -0.7515757984687724 -0.659646738153102 0.0
  outer loop
    vertex 1664.371636550225 2326.7835592247034 2.5999999999999996
    vertex 1664.653185309195 2326.462773535801 1.5999999999999999
    vertex 1664.653185309195 2326.462773535801 2.5999999999999996
  endloop
endfacet
facet normal -0.7515757984687724 -0.659646738153102 0.0
  outer loop
    vertex 1664.653185309195 2326.462773535801 1.5999999999999999
    vertex 1664.371636550225 2326.7835592247034 2.5999999999999996
    vertex 1664.371636550225 2326.7835592247034 1.5999999999999999
  endloop
endfacet
facet normal -0.3951116344859772 0.9186331129965976 0.0
  outer loop
    vertex 1665.282960220881 2330.8185336558004 2.5999999999999996
    vertex 1665.6750488919124 2330.9871742082505 1.5999999999999999
    vertex 1665.282960220881 2330.8185336558004 1.5999999999999999
  endloop
endfacet
facet normal -0.3951116344859772 0.9186331129965976 0.0
  outer loop
    vertex 1665.6750488919124 2330.9871742082505 1.5999999999999999
    vertex 1665.282960220881 2330.8185336558004 2.5999999999999996
    vertex 1665.6750488919124 2330.9871742082505 2.5999999999999996
  endloop
endfacet
facet normal -0.22030696911253336 -0.9754305917698345 3.852529303373849e-18
  outer loop
    vertex 1666.1611729488388 2325.7198666665945 2.5999999999999996
    vertex 1665.7448421210038 2325.813897532145 1.5999999999999999
    vertex 1666.1611729488388 2325.7198666665945 1.5999999999999999
  endloop
endfacet
facet normal -0.22030696911253336 -0.9754305917698345 3.852529303373849e-18
  outer loop
    vertex 1665.7448421210038 2325.813897532145 1.5999999999999999
    vertex 1666.1611729488388 2325.7198666665945 2.5999999999999996
    vertex 1665.7448421210038 2325.813897532145 2.5999999999999996
  endloop
endfacet
facet normal -0.9978850254086382 0.06500366193686166 -1.0906320047848023e-18
  outer loop
    vertex 1663.8583874485219 2328.8010967682794 2.5999999999999996
    vertex 1663.8306427492937 2328.375181995647 1.5999999999999999
    vertex 1663.8306427492937 2328.375181995647 2.5999999999999996
  endloop
endfacet
facet normal -0.9978850254086382 0.06500366193686166 -1.0906320047848023e-18
  outer loop
    vertex 1663.8306427492937 2328.375181995647 1.5999999999999999
    vertex 1663.8583874485219 2328.8010967682794 2.5999999999999996
    vertex 1663.8583874485219 2328.8010967682794 1.5999999999999999
  endloop
endfacet
facet normal -0.06500366193686166 -0.9978850254086382 -1.0906320047848023e-18
  outer loop
    vertex 1666.5870877214713 2325.692121967367 2.5999999999999996
    vertex 1666.1611729488388 2325.7198666665945 1.5999999999999999
    vertex 1666.5870877214713 2325.692121967367 1.5999999999999999
  endloop
endfacet
facet normal -0.06500366193686166 -0.9978850254086382 -1.0906320047848023e-18
  outer loop
    vertex 1666.1611729488388 2325.7198666665945 1.5999999999999999
    vertex 1666.5870877214713 2325.692121967367 2.5999999999999996
    vertex 1666.1611729488388 2325.7198666665945 2.5999999999999996
  endloop
endfacet
facet normal -0.659646738153102 0.7515757984687724 0.0
  outer loop
    vertex 1664.6012943177282 2330.3090844079234 2.5999999999999996
    vertex 1664.9220800066305 2330.590633166893 1.5999999999999999
    vertex 1664.6012943177282 2330.3090844079234 1.5999999999999999
  endloop
endfacet
facet normal -0.659646738153102 0.7515757984687724 0.0
  outer loop
    vertex 1664.9220800066305 2330.590633166893 1.5999999999999999
    vertex 1664.6012943177282 2330.3090844079234 2.5999999999999996
    vertex 1664.9220800066305 2330.590633166893 2.5999999999999996
  endloop
endfacet
facet normal -0.8596110230611058 0.5109490082501766 8.935014787517341e-18
  outer loop
    vertex 1664.3285019624623 2329.9808200437437 2.5999999999999996
    vertex 1664.1104199939643 2329.6139230324475 1.5999999999999999
    vertex 1664.1104199939643 2329.6139230324475 2.5999999999999996
  endloop
endfacet
facet normal -0.8596110230611058 0.5109490082501766 8.935014787517341e-18
  outer loop
    vertex 1664.1104199939643 2329.6139230324475 1.5999999999999999
    vertex 1664.3285019624623 2329.9808200437437 2.5999999999999996
    vertex 1664.3285019624623 2329.9808200437437 1.5999999999999999
  endloop
endfacet
facet normal -0.5109490082501766 -0.8596110230611058 8.935014787517341e-18
  outer loop
    vertex 1665.3483466846706 2325.971899212037 2.5999999999999996
    vertex 1664.9814496733748 2326.189981180535 1.5999999999999999
    vertex 1665.3483466846706 2325.971899212037 1.5999999999999999
  endloop
endfacet
facet normal -0.5109490082501766 -0.8596110230611058 8.935014787517341e-18
  outer loop
    vertex 1664.9814496733748 2326.189981180535 1.5999999999999999
    vertex 1665.3483466846706 2325.971899212037 2.5999999999999996
    vertex 1664.9814496733748 2326.189981180535 2.5999999999999996
  endloop
endfacet
facet normal -0.969132292163414 -0.24654127501513254 0.0
  outer loop
    vertex 1663.8698673829624 2327.950170713449 2.5999999999999996
    vertex 1663.9750955088678 2327.5365281099853 1.5999999999999999
    vertex 1663.9750955088678 2327.5365281099853 2.5999999999999996
  endloop
endfacet
facet normal -0.969132292163414 -0.24654127501513254 0.0
  outer loop
    vertex 1663.9750955088678 2327.5365281099853 1.5999999999999999
    vertex 1663.8698673829624 2327.950170713449 2.5999999999999996
    vertex 1663.8698673829624 2327.950170713449 1.5999999999999999
  endloop
endfacet
facet normal -0.533953034215049 0.8455141378194352 -9.337288417408318e-18
  outer loop
    vertex 1664.9220800066305 2330.590633166893 2.5999999999999996
    vertex 1665.282960220881 2330.8185336558004 1.5999999999999999
    vertex 1664.9220800066305 2330.590633166893 1.5999999999999999
  endloop
endfacet
facet normal -0.533953034215049 0.8455141378194352 -9.337288417408318e-18
  outer loop
    vertex 1665.282960220881 2330.8185336558004 1.5999999999999999
    vertex 1664.9220800066305 2330.590633166893 2.5999999999999996
    vertex 1665.282960220881 2330.8185336558004 2.5999999999999996
  endloop
endfacet
facet normal -0.7690977501568034 0.6391311686217029 1.7901192057361767e-17
  outer loop
    vertex 1664.6012943177282 2330.3090844079234 2.5999999999999996
    vertex 1664.3285019624623 2329.9808200437437 1.5999999999999999
    vertex 1664.3285019624623 2329.9808200437437 2.5999999999999996
  endloop
endfacet
facet normal -0.7690977501568034 0.6391311686217029 1.7901192057361767e-17
  outer loop
    vertex 1664.3285019624623 2329.9808200437437 1.5999999999999999
    vertex 1664.6012943177282 2330.3090844079234 2.5999999999999996
    vertex 1664.6012943177282 2330.3090844079234 1.5999999999999999
  endloop
endfacet
facet normal -0.6391311686217029 -0.7690977501568034 1.7901192057361767e-17
  outer loop
    vertex 1664.9814496733748 2326.189981180535 2.5999999999999996
    vertex 1664.653185309195 2326.462773535801 1.5999999999999999
    vertex 1664.9814496733748 2326.189981180535 1.5999999999999999
  endloop
endfacet
facet normal -0.6391311686217029 -0.7690977501568034 1.7901192057361767e-17
  outer loop
    vertex 1664.653185309195 2326.462773535801 1.5999999999999999
    vertex 1664.9814496733748 2326.189981180535 2.5999999999999996
    vertex 1664.653185309195 2326.462773535801 2.5999999999999996
  endloop
endfacet
facet normal -0.9754305917698345 0.22030696911253336 -3.852529303373849e-18
  outer loop
    vertex 1663.9524183140722 2329.2174275961142 2.5999999999999996
    vertex 1663.8583874485219 2328.8010967682794 1.5999999999999999
    vertex 1663.8583874485219 2328.8010967682794 2.5999999999999996
  endloop
endfacet
facet normal -0.9754305917698345 0.22030696911253336 -3.852529303373849e-18
  outer loop
    vertex 1663.8583874485219 2328.8010967682794 1.5999999999999999
    vertex 1663.9524183140722 2329.2174275961142 2.5999999999999996
    vertex 1663.9524183140722 2329.2174275961142 1.5999999999999999
  endloop
endfacet
facet normal -0.9289578196932088 0.3701855875514874 8.122387676752082e-18
  outer loop
    vertex 1664.1104199939643 2329.6139230324475 2.5999999999999996
    vertex 1663.9524183140722 2329.2174275961142 1.5999999999999999
    vertex 1663.9524183140722 2329.2174275961142 2.5999999999999996
  endloop
endfacet
facet normal -0.9289578196932088 0.3701855875514874 8.122387676752082e-18
  outer loop
    vertex 1663.9524183140722 2329.2174275961142 1.5999999999999999
    vertex 1664.1104199939643 2329.6139230324475 2.5999999999999996
    vertex 1664.1104199939643 2329.6139230324475 1.5999999999999999
  endloop
endfacet
facet normal -0.9186331129965976 -0.3951116344859772 0.0
  outer loop
    vertex 1663.9750955088678 2327.5365281099853 2.5999999999999996
    vertex 1664.1437360613177 2327.1444394389537 1.5999999999999999
    vertex 1664.1437360613177 2327.1444394389537 2.5999999999999996
  endloop
endfacet
facet normal -0.9186331129965976 -0.3951116344859772 0.0
  outer loop
    vertex 1664.1437360613177 2327.1444394389537 1.5999999999999999
    vertex 1663.9750955088678 2327.5365281099853 2.5999999999999996
    vertex 1663.9750955088678 2327.5365281099853 1.5999999999999999
  endloop
endfacet
facet normal -0.3701855875514874 -0.9289578196932088 8.122387676752082e-18
  outer loop
    vertex 1665.7448421210038 2325.813897532145 2.5999999999999996
    vertex 1665.3483466846706 2325.971899212037 1.5999999999999999
    vertex 1665.7448421210038 2325.813897532145 1.5999999999999999
  endloop
endfacet
facet normal -0.3701855875514874 -0.9289578196932088 8.122387676752082e-18
  outer loop
    vertex 1665.3483466846706 2325.971899212037 1.5999999999999999
    vertex 1665.7448421210038 2325.813897532145 2.5999999999999996
    vertex 1665.3483466846706 2325.971899212037 2.5999999999999996
  endloop
endfacet
facet normal 0.09190025113063184 -0.995768217931325 1.6070685911550896e-18
  outer loop
    vertex 1667.0120990036692 2325.7313466010355 2.5999999999999996
    vertex 1666.5870877214713 2325.692121967367 1.5999999999999999
    vertex 1667.0120990036692 2325.7313466010355 1.5999999999999999
  endloop
endfacet
facet normal 0.09190025113063184 -0.995768217931325 1.6070685911550896e-18
  outer loop
    vertex 1666.5870877214713 2325.692121967367 1.5999999999999999
    vertex 1667.0120990036692 2325.7313466010355 2.5999999999999996
    vertex 1666.5870877214713 2325.692121967367 2.5999999999999996
  endloop
endfacet
facet normal -0.8455141378194352 -0.533953034215049 -9.337288417408318e-18
  outer loop
    vertex 1664.1437360613177 2327.1444394389537 2.5999999999999996
    vertex 1664.371636550225 2326.7835592247034 1.5999999999999999
    vertex 1664.371636550225 2326.7835592247034 2.5999999999999996
  endloop
endfacet
facet normal -0.8455141378194352 -0.533953034215049 -9.337288417408318e-18
  outer loop
    vertex 1664.371636550225 2326.7835592247034 1.5999999999999999
    vertex 1664.1437360613177 2327.1444394389537 2.5999999999999996
    vertex 1664.1437360613177 2327.1444394389537 1.5999999999999999
  endloop
endfacet
facet normal -0.995768217931325 -0.09190025113063184 1.6070685911550896e-18
  outer loop
    vertex 1663.8306427492937 2328.375181995647 2.5999999999999996
    vertex 1663.8698673829624 2327.950170713449 1.5999999999999999
    vertex 1663.8698673829624 2327.950170713449 2.5999999999999996
  endloop
endfacet
facet normal -0.995768217931325 -0.09190025113063184 1.6070685911550896e-18
  outer loop
    vertex 1663.8698673829624 2327.950170713449 1.5999999999999999
    vertex 1663.8306427492937 2328.375181995647 2.5999999999999996
    vertex 1663.8306427492937 2328.375181995647 1.5999999999999999
  endloop
endfacet
endsolid testerwpc28v1-IDC-TFTblack-IDC+IC2-lasty2
