solid supp display tester
facet normal 0.0 -1.0 0.0
  outer loop
    vertex 225.02862370127474 238.3653120463802 4.059999999999997
    vertex 213.6286237012747 238.3653120463802 0.0
    vertex 225.02862370127474 238.3653120463802 0.0
  endloop
endfacet
facet normal 0.0 -1.0 0.0
  outer loop
    vertex 213.6286237012747 238.3653120463802 0.0
    vertex 225.02862370127474 238.3653120463802 4.059999999999997
    vertex 213.6286237012747 238.3653120463802 4.059999999999997
  endloop
endfacet
facet normal 0.0 0.0 1.0
  outer loop
    vertex 212.82862370127472 234.06531204638023 4.059999999999997
    vertex 213.6286237012747 234.86531204638024 4.059999999999997
    vertex 212.82862370127472 239.16531204638025 4.059999999999997
  endloop
endfacet
facet normal 0.0 0.0 1.0
  outer loop
    vertex 213.6286237012747 234.86531204638024 4.059999999999997
    vertex 212.82862370127472 234.06531204638023 4.059999999999997
    vertex 225.82862370127472 234.06531204638023 4.059999999999997
  endloop
endfacet
facet normal 0.0 0.0 1.0
  outer loop
    vertex 213.6286237012747 234.86531204638024 4.059999999999997
    vertex 225.82862370127472 234.06531204638023 4.059999999999997
    vertex 225.02862370127474 234.86531204638024 4.059999999999997
  endloop
endfacet
facet normal 0.0 0.0 1.0
  outer loop
    vertex 225.02862370127474 234.86531204638024 4.059999999999997
    vertex 225.82862370127472 234.06531204638023 4.059999999999997
    vertex 225.02862370127474 238.3653120463802 4.059999999999997
  endloop
endfacet
facet normal 0.0 0.0 1.0
  outer loop
    vertex 212.82862370127472 239.16531204638025 4.059999999999997
    vertex 213.6286237012747 238.3653120463802 4.059999999999997
    vertex 225.82862370127472 239.16531204638025 4.059999999999997
  endloop
endfacet
facet normal 0.0 0.0 1.0
  outer loop
    vertex 213.6286237012747 238.3653120463802 4.059999999999997
    vertex 212.82862370127472 239.16531204638025 4.059999999999997
    vertex 213.6286237012747 234.86531204638024 4.059999999999997
  endloop
endfacet
facet normal 0.0 0.0 1.0
  outer loop
    vertex 225.82862370127472 239.16531204638025 4.059999999999997
    vertex 213.6286237012747 238.3653120463802 4.059999999999997
    vertex 225.02862370127474 238.3653120463802 4.059999999999997
  endloop
endfacet
facet normal 0.0 0.0 1.0
  outer loop
    vertex 225.82862370127472 239.16531204638025 4.059999999999997
    vertex 225.02862370127474 238.3653120463802 4.059999999999997
    vertex 225.82862370127472 234.06531204638023 4.059999999999997
  endloop
endfacet
facet normal 0.0 1.0 0.0
  outer loop
    vertex 213.6286237012747 234.86531204638024 4.059999999999997
    vertex 225.02862370127474 234.86531204638024 0.0
    vertex 213.6286237012747 234.86531204638024 0.0
  endloop
endfacet
facet normal 0.0 1.0 0.0
  outer loop
    vertex 225.02862370127474 234.86531204638024 0.0
    vertex 213.6286237012747 234.86531204638024 4.059999999999997
    vertex 225.02862370127474 234.86531204638024 4.059999999999997
  endloop
endfacet
facet normal 0.0 1.0 0.0
  outer loop
    vertex 212.82862370127472 239.16531204638025 4.059999999999997
    vertex 225.82862370127472 239.16531204638025 0.0
    vertex 212.82862370127472 239.16531204638025 0.0
  endloop
endfacet
facet normal 0.0 1.0 0.0
  outer loop
    vertex 225.82862370127472 239.16531204638025 0.0
    vertex 212.82862370127472 239.16531204638025 4.059999999999997
    vertex 225.82862370127472 239.16531204638025 4.059999999999997
  endloop
endfacet
facet normal 0.0 -1.0 0.0
  outer loop
    vertex 225.82862370127472 234.06531204638023 4.059999999999997
    vertex 212.82862370127472 234.06531204638023 0.0
    vertex 225.82862370127472 234.06531204638023 0.0
  endloop
endfacet
facet normal 0.0 -1.0 0.0
  outer loop
    vertex 212.82862370127472 234.06531204638023 0.0
    vertex 225.82862370127472 234.06531204638023 4.059999999999997
    vertex 212.82862370127472 234.06531204638023 4.059999999999997
  endloop
endfacet
facet normal 0.0 0.0 -1.0
  outer loop
    vertex 212.82862370127472 239.16531204638025 0.0
    vertex 213.6286237012747 238.3653120463802 0.0
    vertex 212.82862370127472 234.06531204638023 0.0
  endloop
endfacet
facet normal 0.0 0.0 -1.0
  outer loop
    vertex 213.6286237012747 238.3653120463802 0.0
    vertex 212.82862370127472 239.16531204638025 0.0
    vertex 225.82862370127472 239.16531204638025 0.0
  endloop
endfacet
facet normal 0.0 0.0 -1.0
  outer loop
    vertex 213.6286237012747 238.3653120463802 0.0
    vertex 225.82862370127472 239.16531204638025 0.0
    vertex 225.02862370127474 238.3653120463802 0.0
  endloop
endfacet
facet normal 0.0 0.0 -1.0
  outer loop
    vertex 225.02862370127474 238.3653120463802 0.0
    vertex 225.82862370127472 239.16531204638025 0.0
    vertex 225.02862370127474 234.86531204638024 0.0
  endloop
endfacet
facet normal 0.0 0.0 -1.0
  outer loop
    vertex 212.82862370127472 234.06531204638023 0.0
    vertex 213.6286237012747 234.86531204638024 0.0
    vertex 225.82862370127472 234.06531204638023 0.0
  endloop
endfacet
facet normal 0.0 0.0 -1.0
  outer loop
    vertex 213.6286237012747 234.86531204638024 0.0
    vertex 212.82862370127472 234.06531204638023 0.0
    vertex 213.6286237012747 238.3653120463802 0.0
  endloop
endfacet
facet normal 0.0 0.0 -1.0
  outer loop
    vertex 225.82862370127472 234.06531204638023 0.0
    vertex 213.6286237012747 234.86531204638024 0.0
    vertex 225.02862370127474 234.86531204638024 0.0
  endloop
endfacet
facet normal 0.0 0.0 -1.0
  outer loop
    vertex 225.82862370127472 234.06531204638023 0.0
    vertex 225.02862370127474 234.86531204638024 0.0
    vertex 225.82862370127472 239.16531204638025 0.0
  endloop
endfacet
facet normal -1.0 0.0 0.0
  outer loop
    vertex 225.02862370127474 238.3653120463802 4.059999999999997
    vertex 225.02862370127474 234.86531204638024 0.0
    vertex 225.02862370127474 234.86531204638024 4.059999999999997
  endloop
endfacet
facet normal -1.0 0.0 0.0
  outer loop
    vertex 225.02862370127474 234.86531204638024 0.0
    vertex 225.02862370127474 238.3653120463802 4.059999999999997
    vertex 225.02862370127474 238.3653120463802 0.0
  endloop
endfacet
facet normal 1.0 0.0 0.0
  outer loop
    vertex 213.6286237012747 238.3653120463802 0.0
    vertex 213.6286237012747 234.86531204638024 4.059999999999997
    vertex 213.6286237012747 234.86531204638024 0.0
  endloop
endfacet
facet normal 1.0 0.0 0.0
  outer loop
    vertex 213.6286237012747 234.86531204638024 4.059999999999997
    vertex 213.6286237012747 238.3653120463802 0.0
    vertex 213.6286237012747 238.3653120463802 4.059999999999997
  endloop
endfacet
facet normal -1.0 0.0 0.0
  outer loop
    vertex 212.82862370127472 239.16531204638025 4.059999999999997
    vertex 212.82862370127472 234.06531204638023 0.0
    vertex 212.82862370127472 234.06531204638023 4.059999999999997
  endloop
endfacet
facet normal -1.0 0.0 0.0
  outer loop
    vertex 212.82862370127472 234.06531204638023 0.0
    vertex 212.82862370127472 239.16531204638025 4.059999999999997
    vertex 212.82862370127472 239.16531204638025 0.0
  endloop
endfacet
facet normal 1.0 0.0 0.0
  outer loop
    vertex 225.82862370127472 239.16531204638025 0.0
    vertex 225.82862370127472 234.06531204638023 4.059999999999997
    vertex 225.82862370127472 234.06531204638023 0.0
  endloop
endfacet
facet normal 1.0 0.0 0.0
  outer loop
    vertex 225.82862370127472 234.06531204638023 4.059999999999997
    vertex 225.82862370127472 239.16531204638025 0.0
    vertex 225.82862370127472 239.16531204638025 4.059999999999997
  endloop
endfacet
endsolid supp display tester
